<?xml version="1.0" encoding="UTF-8"?>
<svg version="1.1" xmlns="http://www.w3.org/2000/svg" width="512" height="512">
<path d="M0 0 C0.96767223 -0.00583219 1.93534446 -0.01166439 2.93234009 -0.01767331 C3.98758489 -0.01389399 5.04282969 -0.01011467 6.13005161 -0.00622082 C7.25715079 -0.01004636 8.38424997 -0.01387191 9.54550368 -0.01781338 C13.33020829 -0.0281496 17.11476137 -0.02415 20.89947605 -0.02018261 C23.60966017 -0.02343471 26.31983581 -0.02964689 29.03001499 -0.03567028 C35.63209616 -0.04842191 42.23413666 -0.05021041 48.83622807 -0.04787002 C54.20219512 -0.04608728 59.56814983 -0.04783554 64.93411541 -0.05209446 C65.69770533 -0.05268965 66.46129524 -0.05328484 67.24802424 -0.05389806 C68.79923419 -0.05510981 70.35044413 -0.05632394 71.90165407 -0.05754044 C86.44996324 -0.06841769 100.99824923 -0.06625256 115.5465597 -0.06015559 C128.85679562 -0.0549858 142.16695837 -0.06624318 155.47717982 -0.08525381 C169.14374399 -0.1046238 182.81027353 -0.11288972 196.47685152 -0.10913056 C204.14975808 -0.1072173 211.82260234 -0.10971826 219.4954977 -0.1238451 C226.02721374 -0.13574916 232.55882914 -0.13717476 239.09054654 -0.12505493 C242.4229958 -0.11915937 245.75510975 -0.11970765 249.08757114 -0.13005733 C252.70029192 -0.14046984 256.31251507 -0.13246781 259.92521763 -0.11974621 C260.97823171 -0.12712049 262.03124579 -0.13449478 263.11616939 -0.14209253 C269.44331712 -0.09509901 273.91885446 0.57702381 278.91925144 4.79744434 C279.38847019 5.34013966 279.85768894 5.88283497 280.34112644 6.44197559 C280.82065769 6.97178028 281.30018894 7.50158497 281.79425144 8.04744434 C286.18578351 15.52098537 285.36362947 24.39074419 285.31817722 32.74861622 C285.31761233 34.20790569 285.3179312 35.66719573 285.31906223 37.12648487 C285.31963369 41.06808461 285.30791299 45.00956147 285.29391432 48.95113277 C285.28137239 53.07775333 285.28023374 57.20437701 285.2778635 61.33101368 C285.27165888 69.13645348 285.25526189 76.94183694 285.23516452 84.74725199 C285.21277377 93.63722416 285.20180412 102.52719909 285.19177365 111.41719246 C285.17089473 129.69631872 285.13573862 147.97539262 285.09112644 166.25447559 C286.23625202 166.24448284 286.23625202 166.24448284 287.40451145 166.23428822 C294.61353377 166.17407397 301.82243342 166.12844903 309.03164196 166.09903908 C312.73761478 166.08341059 316.44337908 166.0622244 320.14923191 166.02815723 C323.72836819 165.9954624 327.30730442 165.9776014 330.88657856 165.96984386 C332.24928402 165.96431843 333.61197904 165.95352856 334.97459888 165.93728542 C336.88914575 165.91537923 338.80389569 165.91424907 340.71856785 165.91389942 C341.80666752 165.90723759 342.89476719 165.90057575 344.01583958 165.89371204 C348.24099508 166.3893673 351.61373046 167.87533873 354.73565769 170.78963184 C357.94048771 174.98056341 359.2163407 176.98724872 359.21417427 182.21701717 C359.21616532 183.27298473 359.21815637 184.3289523 359.22020775 185.41691887 C359.21729491 186.58615958 359.21438207 187.75540028 359.21138096 188.96007252 C359.2126626 190.81248501 359.2126626 190.81248501 359.21397012 192.70231998 C359.21533693 196.14109762 359.21219465 199.57981889 359.20719206 203.01858974 C359.20288686 206.72274734 359.20433404 210.4269031 359.20509434 214.13106251 C359.20561953 220.55241404 359.20247324 226.97375543 359.1968565 233.39510441 C359.18874084 242.67937814 359.18612621 251.96364695 359.18486851 261.24792384 C359.18267809 276.30984361 359.17601829 291.37175798 359.1665659 306.43367481 C359.15739151 321.06778912 359.1503108 335.70190196 359.14605808 350.33601856 C359.145664 351.68833939 359.145664 351.68833939 359.14526195 353.06797983 C359.14395694 357.59062807 359.14269323 362.11327632 359.14145005 366.63592458 C359.13107776 404.1754454 359.11345973 441.71496008 359.09112644 479.25447559 C360.34772068 479.24662037 360.34772068 479.24662037 361.62970066 479.23860645 C364.7345158 479.22157546 367.83930715 479.20903077 370.94415379 479.19954395 C372.95019195 479.19203524 374.95620846 479.17933089 376.96222019 479.16658497 C378.8474741 479.16175098 378.8474741 479.16175098 380.77081394 479.15681934 C382.51467381 479.14896412 382.51467381 479.14896412 384.29376316 479.1409502 C387.09112644 479.25447559 387.09112644 479.25447559 389.09112644 480.25447559 C389.2080227 483.62918064 389.27860578 487.00335989 389.34112644 490.37947559 C389.37464207 491.33080372 389.40815769 492.28213184 389.44268894 493.26228809 C389.52436035 499.14262912 389.11876627 502.63367427 385.09112644 507.25447559 C379.95471175 511.77941234 376.90313513 512.40144266 370.20927906 512.38869667 C368.96755924 512.39222502 368.96755924 512.39222502 367.70075417 512.39582464 C364.89672229 512.40253906 362.0927365 512.40205569 359.28869724 512.40164661 C357.27009439 512.40494372 355.25149219 512.40866896 353.23289084 512.41278809 C347.66222107 512.42283363 342.09156207 512.42652898 336.52088451 512.4291774 C330.52210752 512.43307289 324.52333913 512.4426517 318.5245676 512.45139027 C304.71165065 512.47024028 290.89873304 512.48041375 277.08580688 512.48885095 C270.2627095 512.49305513 263.439613 512.49827742 256.61651637 512.50353548 C233.26885856 512.5214268 209.92120051 512.53642376 186.57353687 512.54385567 C185.10732485 512.54433043 183.64111283 512.54480632 182.17490081 512.54528333 C181.08421647 512.54563789 181.08421647 512.54563789 179.9714981 512.54599962 C176.28741588 512.54720084 172.60333366 512.54841628 168.91925144 512.54964161 C168.18812885 512.54988176 167.45700626 512.55012191 166.70372843 512.55036934 C142.99312264 512.5582642 119.28256685 512.58169929 95.57198289 512.61419755 C70.51480838 512.6484789 45.45766313 512.66820523 20.40046477 512.67149991 C17.65087524 512.67191746 14.90128572 512.67239703 12.15169621 512.67292309 C11.13612691 512.67310788 11.13612691 512.67310788 10.10004106 512.6732964 C-0.8056329 512.67563052 -11.71124889 512.69130231 -22.61690218 512.71176493 C-33.57464579 512.73199943 -44.5323291 512.73717751 -55.49008939 512.7279943 C-61.42899944 512.72343474 -67.36772089 512.72543177 -73.30660534 512.74475574 C-78.73978936 512.76228211 -84.17264573 512.76147572 -89.60583273 512.74585845 C-91.57491503 512.7434663 -93.5440194 512.74788837 -95.51306781 512.7596871 C-98.18366797 512.77470267 -100.85309158 512.76520561 -103.52366161 512.74946022 C-104.2934571 512.75968243 -105.06325259 512.76990463 -105.85637522 512.78043661 C-111.02194956 512.71367477 -113.92296711 511.4991178 -117.90887356 508.25447559 C-121.5157304 504.16020566 -123.03917937 501.88523981 -123.00652981 496.46541309 C-123.00169582 495.05388966 -123.00169582 495.05388966 -122.99676418 493.61385059 C-122.98419582 492.13658497 -122.98419582 492.13658497 -122.97137356 490.62947559 C-122.96686184 489.63689747 -122.96235012 488.64431934 -122.95770168 487.62166309 C-122.945895 485.16587399 -122.92942756 482.71020455 -122.90887356 480.25447559 C-120.45612215 479.02809989 -118.85829545 479.14032245 -116.11981106 479.15681934 C-115.17879543 479.160042 -114.23777981 479.16326466 -113.26824856 479.16658497 C-112.28340481 479.17496387 -111.29856106 479.18334278 -110.28387356 479.19197559 C-109.29129543 479.19648731 -108.29871731 479.20099903 -107.27606106 479.20564747 C-104.82027196 479.21745415 -102.36460252 479.23392159 -99.90887356 479.25447559 C-100.3819595 478.65763966 -100.85504543 478.06080372 -101.34246731 477.44588184 C-119.43741179 453.70728995 -125.98398803 427.22341933 -122.59246731 397.47957325 C-119.65447478 379.77674205 -110.12891862 356.36472158 -95.30833244 345.03043556 C-93.17385812 342.32171651 -93.53541553 340.04139053 -93.53706264 336.63208485 C-93.53323808 335.95588528 -93.52941352 335.2796857 -93.52547306 334.58299524 C-93.51617071 332.31206592 -93.5281899 330.04174354 -93.53997707 327.77083302 C-93.53750972 326.14467586 -93.53367198 324.51852028 -93.5285635 322.89236927 C-93.52021647 319.38757699 -93.52104076 315.88294714 -93.52874851 312.3781538 C-93.5403161 306.83557439 -93.52818136 301.2932046 -93.51212978 295.75064564 C-93.47590704 281.98140705 -93.469705 268.21217301 -93.47222805 254.44289112 C-93.47393897 243.74734327 -93.46682081 233.05196616 -93.43224949 222.35646611 C-93.41544936 216.8476858 -93.4172558 211.33932161 -93.43307221 205.83054292 C-93.43887029 202.40057815 -93.42812673 198.97081054 -93.41282558 195.54088116 C-93.40909998 193.95180576 -93.41220568 192.36269722 -93.42269611 190.77365208 C-93.43608062 188.60120944 -93.42484784 186.43020261 -93.40766811 184.25781727 C-93.4078774 183.0431034 -93.40808668 181.82838953 -93.40830231 180.57686615 C-92.63559187 175.43650153 -90.13936261 172.36491693 -86.34637356 168.94197559 C-82.45461899 166.24768397 -79.49667829 166.13157944 -74.87689114 166.1409502 C-73.63583111 166.14102573 -72.39477108 166.14110126 -71.11610317 166.14117908 C-69.76186998 166.14628569 -68.40763719 166.15150168 -67.05340481 166.15681934 C-65.66763771 166.15868476 -64.28186995 166.16010808 -62.89610195 166.16110706 C-59.25139446 166.1649225 -55.60672691 166.17474447 -51.96203518 166.18581104 C-48.24184618 166.1960461 -44.52165071 166.20060917 -40.80145168 166.20564747 C-33.50390745 166.21636761 -26.2063961 166.23343234 -18.90887356 166.25447559 C-18.91071714 165.49909756 -18.91256073 164.74371952 -18.91446018 163.96545124 C-18.95866425 145.56983175 -18.99174232 127.17422289 -19.0124979 108.77856159 C-19.0228024 99.88249267 -19.03684694 90.98645924 -19.05975246 82.09041309 C-19.07971164 74.33496212 -19.092596 66.57953686 -19.09705055 58.82406092 C-19.09965364 54.71911244 -19.10575484 50.6142375 -19.12033367 46.50931263 C-19.13395753 42.64176472 -19.13808652 38.77432031 -19.13508892 34.90675068 C-19.13563694 33.49105484 -19.1395857 32.07535537 -19.14728451 30.65968037 C-19.24366346 12.01511207 -19.24366346 12.01511207 -13.59637356 5.87947559 C-13.02274075 5.23236622 -12.44910793 4.58525684 -11.85809231 3.91853809 C-8.26836915 0.85396482 -4.64347138 0.00483019 0 0 Z " fill="#FEF6F1" transform="translate(122.90887355804443,-0.25447559356689453)"/>
<path d="M0 0 C1.26108078 0.00007553 2.52216156 0.00015106 3.82145691 0.00022888 C5.19778482 0.0053355 6.57411234 0.0105515 7.95043945 0.01586914 C9.35862681 0.01773453 10.76681481 0.01915786 12.17500305 0.02015686 C15.878894 0.02397251 19.58274566 0.03379467 23.28662109 0.04486084 C27.06713326 0.05509542 30.84765179 0.05965887 34.62817383 0.06469727 C42.04420943 0.0754178 49.46020455 0.09300689 56.8762207 0.11352539 C56.8762207 9.02352539 56.8762207 17.93352539 56.8762207 27.11352539 C53.73477539 27.1509082 50.59333008 27.18829102 47.35668945 27.22680664 C44.31845076 27.27300099 41.2803363 27.32424228 38.2421875 27.37597656 C36.12865734 27.40925667 34.01503765 27.43727892 31.90136719 27.45996094 C28.86525265 27.49345011 25.82996095 27.54576303 22.79418945 27.60180664 C21.84722702 27.60819656 20.90026459 27.61458649 19.92460632 27.62117004 C18.60357658 27.65086128 18.60357658 27.65086128 17.25585938 27.68115234 C16.09336922 27.69780693 16.09336922 27.69780693 14.90739441 27.71479797 C12.27250574 28.23203702 11.51520799 29.0008263 9.8762207 31.11352539 C9.43279562 33.53509303 9.43279562 33.53509303 9.51545715 36.29570007 C9.50927116 37.90478241 9.50927116 37.90478241 9.50296021 39.54637146 C9.51374603 40.72312943 9.52453186 41.89988739 9.53564453 43.11230469 C9.53520645 44.35144623 9.53476837 45.59058777 9.53431702 46.86727905 C9.53605036 50.26596719 9.55110711 53.6641103 9.57203889 57.06270194 C9.5907784 60.61411675 9.59255397 64.16553862 9.59611511 67.71699524 C9.60544363 74.44245768 9.63006822 81.16777401 9.66016358 87.89317209 C9.69368259 95.54966544 9.71018729 103.20616573 9.72524989 110.86271417 C9.75661715 126.61306922 9.8093932 142.36327848 9.8762207 158.11352539 C10.55046585 157.83945862 11.224711 157.56539185 11.91938782 157.28302002 C12.81046738 156.92319031 13.70154694 156.5633606 14.61962891 156.19262695 C15.50012405 155.83606018 16.3806192 155.47949341 17.28779602 155.11212158 C40.92402585 145.99342895 67.40320547 148.63203662 90.3762207 158.36352539 C98.15460185 161.86071374 106.46408466 166.57248255 112.43182755 172.71458149 C116.33069934 174.94593404 120.24332294 174.53498183 124.65838623 174.51225281 C125.66227426 174.51889963 126.66616229 174.52554646 127.70047116 174.53239471 C131.07393521 174.55108962 134.4470466 174.54841501 137.82055664 174.54589844 C140.23491418 174.55491161 142.64926713 174.56523773 145.06361389 174.57678223 C150.26646388 174.59869841 155.46925125 174.61145587 160.67214203 174.61591148 C168.19464174 174.62236934 175.71702022 174.64530023 183.23947111 174.67225478 C195.44405419 174.71553891 207.64863217 174.74549636 219.85327148 174.76708984 C231.70909131 174.78809467 243.56486917 174.81539962 255.4206543 174.85107422 C256.15887055 174.85328773 256.8970868 174.85550124 257.65767324 174.85778183 C264.07907041 174.87709085 270.50046608 174.89687737 276.92186165 174.91671085 C304.57329237 175.00149737 332.22469339 175.05492452 359.8762207 175.11352539 C359.8762207 212.07352539 359.8762207 249.03352539 359.8762207 287.11352539 C375.3862207 287.11352539 390.8962207 287.11352539 406.8762207 287.11352539 C406.81486697 254.55163918 406.74286274 221.98985902 406.64723442 189.42806019 C406.63596585 185.58648055 406.62482746 181.74490056 406.61376953 177.90332031 C406.61046401 176.75610464 406.61046401 176.75610464 406.6070917 175.58571289 C406.57169014 163.19141897 406.54684217 150.79712511 406.52587368 138.40279933 C406.50413436 125.69123478 406.47110183 112.97973602 406.42751914 100.2682274 C406.40097009 92.42041914 406.38329873 84.57269289 406.37687466 76.72484193 C406.37101202 70.71369459 406.34946022 64.70270956 406.32194519 58.69161797 C406.31311889 56.22084091 406.30945179 53.75003947 406.31121254 51.27924728 C406.31285271 47.91695864 406.29627353 44.55524857 406.27494812 41.19303894 C406.2797957 40.2056947 406.28464327 39.21835046 406.28963774 38.2010867 C406.2801812 37.30336429 406.27072466 36.40564187 406.26098156 35.48071575 C406.25813366 34.31592364 406.25813366 34.31592364 406.25522822 33.12760037 C405.77599017 30.58089267 404.89499803 29.6903234 402.8762207 28.11352539 C400.80588166 27.64433577 400.80588166 27.64433577 398.49658203 27.68115234 C397.61589554 27.66135818 396.73520905 27.64156403 395.82783508 27.62117004 C394.88087265 27.61478012 393.93391022 27.6083902 392.95825195 27.60180664 C391.98587082 27.58385544 391.01348969 27.56590424 390.01164246 27.54740906 C386.90404607 27.49320072 383.79660418 27.45937641 380.6887207 27.42602539 C378.58257936 27.39286163 376.47645844 27.35837286 374.37036133 27.32250977 C369.20562425 27.23497185 364.04159753 27.17499274 358.8762207 27.11352539 C358.8762207 18.20352539 358.8762207 9.29352539 358.8762207 0.11352539 C366.98678108 0.04564148 375.0971191 -0.00935268 383.20788765 -0.04191113 C386.97439284 -0.05754067 390.74069292 -0.07872885 394.50708008 -0.11279297 C398.14457072 -0.14548395 401.78186456 -0.16334801 405.41949081 -0.17110634 C406.80452445 -0.17663245 408.18954779 -0.18742366 409.57449722 -0.20366478 C411.52017892 -0.22556589 413.46606031 -0.22670109 415.41186523 -0.22705078 C416.5177298 -0.23371262 417.62359436 -0.24037445 418.76296997 -0.24723816 C423.00921936 0.2448173 426.38316162 1.71976715 429.52075195 4.64868164 C432.72558197 8.83961321 434.00143496 10.84629852 433.99926853 16.07606697 C434.00125958 17.13203453 434.00325063 18.18800209 434.00530201 19.27596867 C434.00238917 20.44520937 433.99947633 21.61445008 433.99647522 22.81912231 C433.99775686 24.67153481 433.99775686 24.67153481 433.99906439 26.56136978 C434.00043119 30.00014742 433.99728892 33.43886868 433.99228632 36.87763953 C433.98798112 40.58179714 433.9894283 44.2859529 433.9901886 47.9901123 C433.99071379 54.41146383 433.9875675 60.83280523 433.98195076 67.25415421 C433.9738351 76.53842793 433.97122047 85.82269674 433.96996277 95.10697363 C433.96777235 110.16889341 433.96111255 125.23080777 433.95166016 140.29272461 C433.94248577 154.92683892 433.93540507 169.56095176 433.93115234 184.19506836 C433.93075826 185.54738919 433.93075826 185.54738919 433.93035621 186.92702962 C433.92905121 191.44967787 433.92778749 195.97232612 433.92654431 200.49497437 C433.91617202 238.0344952 433.89855399 275.57400987 433.8762207 313.11352539 C435.13281494 313.10567017 435.13281494 313.10567017 436.41479492 313.09765625 C439.51961006 313.08062525 442.62440141 313.06808057 445.72924805 313.05859375 C447.73528621 313.05108503 449.74130273 313.03838069 451.74731445 313.02563477 C453.63256836 313.02080078 453.63256836 313.02080078 455.5559082 313.01586914 C457.29976807 313.00801392 457.29976807 313.00801392 459.07885742 313 C461.8762207 313.11352539 461.8762207 313.11352539 463.8762207 314.11352539 C463.99311696 317.48823043 464.06370004 320.86240969 464.1262207 324.23852539 C464.15973633 325.18985352 464.19325195 326.14118164 464.2277832 327.12133789 C464.30945461 333.00167891 463.90386053 336.49272407 459.8762207 341.11352539 C454.73980601 345.63846214 451.68822939 346.26049245 444.99437332 346.24774647 C443.7526535 346.25127481 443.7526535 346.25127481 442.48584843 346.25487444 C439.68181656 346.26158886 436.87783076 346.26110548 434.0737915 346.26069641 C432.05518865 346.26399351 430.03658645 346.26771875 428.01798511 346.27183789 C422.44731533 346.28188343 416.87665633 346.28557877 411.30597878 346.2882272 C405.30720178 346.29212268 399.30843339 346.3017015 393.30966187 346.31044006 C379.49674491 346.32929008 365.6838273 346.33946355 351.87090114 346.34790074 C345.04780376 346.35210493 338.22470727 346.35732722 331.40161063 346.36258527 C308.05395282 346.3804766 284.70629477 346.39547356 261.35863113 346.40290546 C259.89241911 346.40338022 258.4262071 346.40385611 256.95999508 346.40433313 C255.86931073 346.40468769 255.86931073 346.40468769 254.75659236 346.40504942 C251.07251014 346.40625064 247.38842792 346.40746608 243.7043457 346.40869141 C242.97322311 346.40893156 242.24210052 346.40917171 241.48882269 346.40941913 C217.77821691 346.41731399 194.06766111 346.44074909 170.35707716 346.47324735 C145.29990264 346.5075287 120.24275739 346.52725502 95.18555903 346.53054971 C92.4359695 346.53096726 89.68637998 346.53144682 86.93679047 346.53197289 C85.92122117 346.53215767 85.92122117 346.53215767 84.88513532 346.53234619 C73.97946137 346.53468032 63.07384537 346.5503521 52.16819208 346.57081473 C41.21044847 346.59104923 30.25276516 346.59622731 19.29500487 346.5870441 C13.35609483 346.58248454 7.41737337 346.58448157 1.47848892 346.60380554 C-3.9546951 346.62133191 -9.38755147 346.62052552 -14.82073846 346.60490825 C-16.78982077 346.6025161 -18.75892514 346.60693817 -20.72797355 346.6187369 C-23.39857371 346.63375247 -26.06799732 346.62425541 -28.73856735 346.60851002 C-29.50836284 346.61873222 -30.27815833 346.62895443 -31.07128096 346.6394864 C-36.2368553 346.57272457 -39.13787284 345.3581676 -43.1237793 342.11352539 C-46.73063614 338.01925546 -48.25408511 335.7442896 -48.22143555 330.32446289 C-48.21660156 328.91293945 -48.21660156 328.91293945 -48.21166992 327.47290039 C-48.19910156 325.99563477 -48.19910156 325.99563477 -48.1862793 324.48852539 C-48.18176758 323.49594727 -48.17725586 322.50336914 -48.17260742 321.48071289 C-48.16080074 319.02492379 -48.1443333 316.56925435 -48.1237793 314.11352539 C-45.67102789 312.88714969 -44.07320119 312.99937225 -41.3347168 313.01586914 C-40.39370117 313.0190918 -39.45268555 313.02231445 -38.4831543 313.02563477 C-37.49831055 313.03401367 -36.5134668 313.04239258 -35.4987793 313.05102539 C-34.50620117 313.05553711 -33.51362305 313.06004883 -32.4909668 313.06469727 C-30.0351777 313.07650394 -27.57950826 313.09297139 -25.1237793 313.11352539 C-25.59686523 312.51668945 -26.06995117 311.91985352 -26.55737305 311.30493164 C-44.65231753 287.56633975 -51.19889377 261.08246913 -47.80737305 231.33862305 C-44.86938052 213.63579185 -35.34382436 190.22377137 -20.52323818 178.88948536 C-18.38876386 176.18076631 -18.75032127 173.90044033 -18.75196838 170.49113464 C-18.74814382 169.81493507 -18.74431926 169.1387355 -18.7403788 168.44204503 C-18.73107645 166.17111572 -18.74309564 163.90079334 -18.75488281 161.62988281 C-18.75241546 160.00372565 -18.74857772 158.37757008 -18.74346924 156.75141907 C-18.73512221 153.24662679 -18.7359465 149.74199693 -18.74365425 146.2372036 C-18.75522184 140.69462419 -18.7430871 135.15225439 -18.72703552 129.60969543 C-18.69081278 115.84045684 -18.68461074 102.0712228 -18.68713379 88.30194092 C-18.68884471 77.60639307 -18.68172655 66.91101596 -18.64715523 56.21551591 C-18.6303551 50.70673559 -18.63216154 45.19837141 -18.64797795 39.68959272 C-18.65377603 36.25962795 -18.64303247 32.82986034 -18.62773132 29.39993095 C-18.62400572 27.81085556 -18.62711142 26.22174701 -18.63760185 24.63270187 C-18.65098636 22.46025924 -18.63975358 20.28925241 -18.62257385 18.11686707 C-18.62278314 16.9021532 -18.62299242 15.68743933 -18.62320805 14.43591595 C-17.85049761 9.29555133 -15.35426835 6.22396673 -11.5612793 2.80102539 C-7.64173129 0.08749215 -4.65368936 -0.0092888 0 0 Z " fill="#D376E1" transform="translate(48.123779296875,165.886474609375)"/>
<path d="M0 0 C0.96767223 -0.00583219 1.93534446 -0.01166439 2.93234009 -0.01767331 C3.98758489 -0.01389399 5.04282969 -0.01011467 6.13005161 -0.00622082 C7.25715079 -0.01004636 8.38424997 -0.01387191 9.54550368 -0.01781338 C13.33020829 -0.0281496 17.11476137 -0.02415 20.89947605 -0.02018261 C23.60966017 -0.02343471 26.31983581 -0.02964689 29.03001499 -0.03567028 C35.63209616 -0.04842191 42.23413666 -0.05021041 48.83622807 -0.04787002 C54.20219512 -0.04608728 59.56814983 -0.04783554 64.93411541 -0.05209446 C65.69770533 -0.05268965 66.46129524 -0.05328484 67.24802424 -0.05389806 C68.79923419 -0.05510981 70.35044413 -0.05632394 71.90165407 -0.05754044 C86.44996324 -0.06841769 100.99824923 -0.06625256 115.5465597 -0.06015559 C128.85679562 -0.0549858 142.16695837 -0.06624318 155.47717982 -0.08525381 C169.14374399 -0.1046238 182.81027353 -0.11288972 196.47685152 -0.10913056 C204.14975808 -0.1072173 211.82260234 -0.10971826 219.4954977 -0.1238451 C226.02721374 -0.13574916 232.55882914 -0.13717476 239.09054654 -0.12505493 C242.4229958 -0.11915937 245.75510975 -0.11970765 249.08757114 -0.13005733 C252.70029192 -0.14046984 256.31251507 -0.13246781 259.92521763 -0.11974621 C260.97823171 -0.12712049 262.03124579 -0.13449478 263.11616939 -0.14209253 C269.44331712 -0.09509901 273.91885446 0.57702381 278.91925144 4.79744434 C279.38847019 5.34013966 279.85768894 5.88283497 280.34112644 6.44197559 C280.82065769 6.97178028 281.30018894 7.50158497 281.79425144 8.04744434 C286.13817454 15.43996407 285.37023009 24.19244469 285.33404636 32.46297169 C285.33512092 33.8930568 285.33706218 35.32314148 285.33979893 36.75322437 C285.34462709 40.62164787 285.3370133 44.48995513 285.32684588 48.35836458 C285.31801319 52.4285206 285.31982396 56.49867352 285.32020664 60.56883717 C285.31927114 67.41312551 285.310609 74.25736943 285.29693699 81.10164356 C285.28127561 88.96991551 285.27593685 96.83813865 285.27667254 104.70642507 C285.27735341 113.13082612 285.27037562 121.5552088 285.26122594 129.97960424 C285.25911356 132.38202359 285.25838733 134.7844399 285.25798702 137.18686008 C285.2569665 140.99708114 285.2507343 144.80726279 285.24082088 148.61747074 C285.23660437 150.64881199 285.23705886 152.68016134 285.2377634 154.71150684 C285.20418131 164.62064366 284.64303672 174.32009059 284.09112644 184.25447559 C184.43112644 184.25447559 84.77112644 184.25447559 -17.90887356 184.25447559 C-18.5327888 173.02400127 -19.05802864 161.97174699 -19.05413723 150.75203419 C-19.05714244 149.30424891 -19.06054799 147.85646441 -19.06431484 146.40868092 C-19.07300819 142.54156001 -19.07548627 138.67446131 -19.07613063 134.80733156 C-19.07684811 132.38330424 -19.07899513 129.95928234 -19.08162785 127.53525639 C-19.09082353 119.05803291 -19.09496892 110.58082499 -19.09417629 102.10359669 C-19.09357291 94.22921979 -19.10419027 86.35491081 -19.11991996 78.48055112 C-19.13300763 71.68436246 -19.13835987 64.88819604 -19.13772088 58.09199488 C-19.13746682 54.04768469 -19.14026923 50.00343542 -19.15089893 45.95913792 C-19.16060394 42.16521029 -19.16064275 38.37140174 -19.1533823 34.57746983 C-19.15234036 33.19078872 -19.15467606 31.80410006 -19.16074276 30.41743183 C-19.23604825 12.00683835 -19.23604825 12.00683835 -13.59637356 5.87947559 C-13.02274075 5.23236622 -12.44910793 4.58525684 -11.85809231 3.91853809 C-8.26836915 0.85396482 -4.64347138 0.00483019 0 0 Z " fill="#FEDCCF" transform="translate(122.90887355804443,-0.25447559356689453)"/>
<path d="M0 0 C8.11056037 -0.06788391 16.2208984 -0.12287807 24.33166695 -0.15543652 C28.09817214 -0.17106606 31.86447221 -0.19225424 35.63085938 -0.22631836 C39.26835002 -0.25900935 42.90564385 -0.2768734 46.54327011 -0.28463173 C47.92830374 -0.29015785 49.31332709 -0.30094905 50.69827652 -0.31719017 C52.64395821 -0.33909128 54.58983961 -0.34022648 56.53564453 -0.34057617 C57.64150909 -0.34723801 58.74737366 -0.35389984 59.88674927 -0.36076355 C64.13299866 0.1312919 67.50694092 1.60624176 70.64453125 4.53515625 C73.84936127 8.72608782 75.12521426 10.73277312 75.12304783 15.96254158 C75.12503888 17.01850914 75.12702993 18.0744767 75.12908131 19.16244328 C75.12616847 20.33168398 75.12325563 21.50092469 75.12025452 22.70559692 C75.12153615 24.55800942 75.12153615 24.55800942 75.12284368 26.44784439 C75.12421049 29.88662203 75.12106821 33.32534329 75.11606562 36.76411414 C75.11176042 40.46827175 75.1132076 44.17242751 75.1139679 47.87658691 C75.11449309 54.29793844 75.11134679 60.71927984 75.10573006 67.14062881 C75.0976144 76.42490254 75.09499977 85.70917135 75.09374207 94.99344824 C75.09155165 110.05536802 75.08489185 125.11728238 75.07543945 140.17919922 C75.06626507 154.81331353 75.05918436 169.44742637 75.05493164 184.08154297 C75.05453756 185.4338638 75.05453756 185.4338638 75.05413551 186.81350423 C75.0528305 191.33615247 75.05156679 195.85880073 75.05032361 200.38144898 C75.03995132 237.92096981 75.02233328 275.46048448 75 313 C76.25659424 312.99214478 76.25659424 312.99214478 77.53857422 312.98413086 C80.64338936 312.96709986 83.74818071 312.95455518 86.85302734 312.94506836 C88.85906551 312.93755964 90.86508202 312.9248553 92.87109375 312.91210938 C94.75634766 312.90727539 94.75634766 312.90727539 96.6796875 312.90234375 C98.42354736 312.89448853 98.42354736 312.89448853 100.20263672 312.88647461 C103 313 103 313 105 314 C105.11689626 317.37470504 105.18747934 320.7488843 105.25 324.125 C105.28351562 325.07632812 105.31703125 326.02765625 105.3515625 327.0078125 C105.4332339 332.88815352 105.02763982 336.37919867 101 341 C95.86358531 345.52493675 92.81200869 346.14696706 86.11815262 346.13422108 C84.8764328 346.13774942 84.8764328 346.13774942 83.60962772 346.14134905 C80.80559585 346.14806347 78.00161006 346.14758009 75.1975708 346.14717102 C73.17896794 346.15046812 71.16036575 346.15419336 69.1417644 346.1583125 C63.57109463 346.16835804 58.00043563 346.17205338 52.42975807 346.17470181 C46.43098108 346.17859729 40.43221268 346.18817611 34.43344116 346.19691467 C20.6205242 346.21576469 6.8076066 346.22593816 -7.00531956 346.23437535 C-13.82841694 346.23857954 -20.65151344 346.24380183 -27.47461007 346.24905988 C-50.82226788 346.26695121 -74.16992593 346.28194817 -97.51758957 346.28938007 C-98.98380159 346.28985483 -100.45001361 346.29033072 -101.91622563 346.29080774 C-103.00690997 346.2911623 -103.00690997 346.2911623 -104.11962834 346.29152403 C-107.80371056 346.29272525 -111.48779278 346.29394069 -115.171875 346.29516602 C-115.90299759 346.29540617 -116.63412019 346.29564632 -117.38739801 346.29589374 C-141.0980038 346.3037886 -164.80855959 346.3272237 -188.51914355 346.35972196 C-213.57631806 346.39400331 -238.63346331 346.41372963 -263.69066167 346.41702431 C-266.4402512 346.41744187 -269.18984072 346.41792143 -271.93943024 346.41844749 C-272.95499953 346.41863228 -272.95499953 346.41863228 -273.99108538 346.4188208 C-284.89675934 346.42115493 -295.80237533 346.43682671 -306.70802862 346.45728934 C-317.66577224 346.47752384 -328.62345554 346.48270192 -339.58121583 346.47351871 C-345.52012588 346.46895915 -351.45884733 346.47095618 -357.39773178 346.49028015 C-362.8309158 346.50780651 -368.26377217 346.50700013 -373.69695917 346.49138286 C-375.66604147 346.48899071 -377.63514585 346.49341278 -379.60419425 346.50521151 C-382.27479441 346.52022708 -384.94421802 346.51073002 -387.61478806 346.49498463 C-388.38458354 346.50520683 -389.15437903 346.51542904 -389.94750166 346.52596101 C-395.113076 346.45919918 -398.01409355 345.24464221 -402 342 C-405.60685684 337.90573007 -407.13030581 335.63076421 -407.09765625 330.2109375 C-407.09282227 328.79941406 -407.09282227 328.79941406 -407.08789062 327.359375 C-407.07532227 325.88210938 -407.07532227 325.88210938 -407.0625 324.375 C-407.05798828 323.38242187 -407.05347656 322.38984375 -407.04882812 321.3671875 C-407.03702145 318.9113984 -407.020554 316.45572896 -407 314 C-404.54724859 312.7736243 -402.9494219 312.88584686 -400.2109375 312.90234375 C-399.26992188 312.90556641 -398.32890625 312.90878906 -397.359375 312.91210938 C-396.37453125 312.92048828 -395.3896875 312.92886719 -394.375 312.9375 C-393.38242187 312.94201172 -392.38984375 312.94652344 -391.3671875 312.95117188 C-388.9113984 312.96297855 -386.45572896 312.979446 -384 313 C-384.47308594 312.40316406 -384.94617188 311.80632812 -385.43359375 311.19140625 C-398.53146769 294.00842543 -407.28929297 274.50179862 -407.0625 252.625 C-407.05798828 251.79355469 -407.05347656 250.96210938 -407.04882812 250.10546875 C-407.03713164 248.07028103 -407.01919935 246.03513077 -407 244 C-406.67 244 -406.34 244 -406 244 C-405.83564453 245.30710937 -405.83564453 245.30710937 -405.66796875 246.640625 C-402.06495989 273.70713056 -391.38807818 296.2998244 -370.3125 314.1875 C-348.9292357 330.52335901 -323.7428905 337.52341362 -297 335 C-270.78819987 331.03427687 -246.93568856 317.88210899 -230.8359375 296.6875 C-222.01410278 283.77383556 -216.049971 270.37383758 -213 255 C-212.67 255 -212.34 255 -212 255 C-211.11863357 266.77603483 -214.34302619 277.30768373 -219 288 C-217.90950316 287.99484627 -216.81900633 287.98969254 -215.69546413 287.98438263 C-188.92426802 287.85791199 -162.15306607 287.73273575 -135.38185787 287.60884857 C-122.43450072 287.54890431 -109.48714563 287.48856838 -96.53979492 287.42724609 C-85.22967018 287.37367923 -73.919542 287.32091265 -62.60940939 287.26903296 C-56.64374204 287.24164239 -50.67807687 287.21390173 -44.7124157 287.18519592 C-13.8080407 287.03680221 17.09526651 286.96915338 48 287 C47.9409313 254.43812234 47.86664201 221.87632461 47.77101372 189.31453479 C47.75974515 185.47295516 47.74860676 181.63137516 47.73754883 177.78979492 C47.7342433 176.64257925 47.7342433 176.64257925 47.730871 175.4721875 C47.69546943 163.07789358 47.67062147 150.68359972 47.64965298 138.28927394 C47.62791366 125.57770939 47.59488113 112.86621063 47.55129844 100.15470201 C47.52474939 92.30689375 47.50707803 84.4591675 47.50065396 76.61131654 C47.49479132 70.6001692 47.47323952 64.58918417 47.44572449 58.57809258 C47.43689819 56.10731552 47.43323109 53.63651408 47.43499184 51.16572189 C47.43663201 47.80343325 47.42005283 44.44172318 47.39872742 41.07951355 C47.40357499 40.09216931 47.40842257 39.10482507 47.41341704 38.08756131 C47.4039605 37.1898389 47.39450396 36.29211648 47.38476086 35.36719036 C47.38191295 34.20239825 47.38191295 34.20239825 47.37900752 33.01407498 C46.89976947 30.46736728 46.01877733 29.57679801 44 28 C41.92966096 27.53081038 41.92966096 27.53081038 39.62036133 27.56762695 C38.73967484 27.54783279 37.85898834 27.52803864 36.95161438 27.50764465 C36.00465195 27.50125473 35.05768951 27.49486481 34.08203125 27.48828125 C33.10965012 27.47033005 32.13726898 27.45237885 31.13542175 27.43388367 C28.02782536 27.37967533 24.92038348 27.34585102 21.8125 27.3125 C19.70635866 27.27933624 17.60023773 27.24484747 15.49414062 27.20898438 C10.32940354 27.12144646 5.16537683 27.06146735 0 27 C0 18.09 0 9.18 0 0 Z " fill="#707AF9" transform="translate(407,166)"/>
<path d="M0 0 C80.52 0 161.04 0 244 0 C244 37.29 244 74.58 244 113 C171.4 113 98.8 113 24 113 C24.99 109.7 25.98 106.4 27 103 C27.74946474 100.12746958 28.48443523 97.25838624 29.1875 94.375 C29.36474609 93.65699219 29.54199219 92.93898438 29.72460938 92.19921875 C30.15196563 90.46669341 30.57632089 88.73342823 31 87 C32.17684357 86.99413376 33.35368713 86.98826752 34.56619263 86.98222351 C45.6604312 86.9249941 56.7544738 86.85223112 67.84851265 86.76428509 C73.55198884 86.71957035 79.2553934 86.68031647 84.95898438 86.65356445 C90.46395352 86.62754277 95.96864724 86.58714794 101.47344589 86.53681374 C103.57293139 86.52013743 105.67246454 86.50862792 107.77200699 86.50238609 C110.71434609 86.49275351 113.65597933 86.46470365 116.59814453 86.43237305 C117.46489304 86.43380814 118.33164154 86.43524323 119.22465515 86.4367218 C124.2038257 86.3594185 127.69337102 85.780693 132 83 C133.56700442 79.86599115 133.85164561 76.36844905 133 73 C130.12363179 69.90371521 127.88556996 68.74164688 123.75419617 68.48101807 C122.04298115 68.45179284 120.33130962 68.44431504 118.61987305 68.45410156 C117.21426369 68.43859505 117.21426369 68.43859505 115.78025818 68.42277527 C112.69056986 68.39333597 109.60153633 68.39184783 106.51171875 68.390625 C104.36650848 68.37564415 102.22130975 68.35891721 100.0761261 68.34051514 C94.4356534 68.29681897 88.79533629 68.27683737 83.15472412 68.26177979 C77.39667553 68.242217 71.63879517 68.200246 65.88085938 68.16015625 C54.58729144 68.08482946 43.29376113 68.03455282 32 68 C31.86620941 67.28915253 31.73241882 66.57830505 31.59457397 65.84591675 C30.97505514 62.58052446 30.34309068 59.31765643 29.7109375 56.0546875 C29.50073975 54.93666748 29.29054199 53.81864746 29.07397461 52.66674805 C25.52429643 34.49212937 16.79732836 20.13366201 5 6 C3.35 4.02 1.7 2.04 0 0 Z " fill="#FE8354" transform="translate(164,341)"/>
<path d="M0 0 C0.33 0 0.66 0 1 0 C1.10957031 0.87140625 1.21914063 1.7428125 1.33203125 2.640625 C4.93504011 29.70713056 15.61192182 52.2998244 36.6875 70.1875 C58.0707643 86.52335901 83.2571095 93.52341362 110 91 C136.21180013 87.03427687 160.06431144 73.88210899 176.1640625 52.6875 C184.98589722 39.77383556 190.950029 26.37383758 194 11 C194.33 11 194.66 11 195 11 C196.54244771 31.60881518 186.08664024 52.57839905 173 68 C163.0795107 78.96024465 163.0795107 78.96024465 159 81 C165.6 81.33 172.2 81.66 179 82 C178.67 81.34 178.34 80.68 178 80 C178 76.7 178 73.4 178 70 C229.48 70 280.96 70 334 70 C334 80 334 80 333 82 C354.09721111 81.93942067 375.19429965 81.86188902 396.29137325 81.76428509 C406.08754843 81.71935727 415.88368749 81.67993564 425.67993164 81.65356445 C434.2203002 81.63055998 442.7605542 81.59713456 451.30083185 81.55129844 C455.82106977 81.52739927 460.34119445 81.50864884 464.86149406 81.50238609 C469.12066023 81.49632027 473.3795368 81.47626652 477.63859558 81.44572449 C479.19736276 81.43696821 480.75616781 81.43321666 482.31495857 81.43499184 C494.02340029 81.61405381 494.02340029 81.61405381 505 78 C507.22922934 75.71503993 508.58789495 73.82421009 510 71 C510.66 71 511.32 71 512 71 C512.11698258 74.20802233 512.18750607 77.41549025 512.25 80.625 C512.28351562 81.52863281 512.31703125 82.43226563 512.3515625 83.36328125 C512.43567522 89.12500289 511.91046107 92.45675523 508 97 C502.86358531 101.52493675 499.81200869 102.14696706 493.11815262 102.13422108 C491.8764328 102.13774942 491.8764328 102.13774942 490.60962772 102.14134905 C487.80559585 102.14806347 485.00161006 102.14758009 482.1975708 102.14717102 C480.17896794 102.15046812 478.16036575 102.15419336 476.1417644 102.1583125 C470.57109463 102.16835804 465.00043563 102.17205338 459.42975807 102.17470181 C453.43098108 102.17859729 447.43221268 102.18817611 441.43344116 102.19691467 C427.6205242 102.21576469 413.8076066 102.22593816 399.99468044 102.23437535 C393.17158306 102.23857954 386.34848656 102.24380183 379.52538993 102.24905988 C356.17773212 102.26695121 332.83007407 102.28194817 309.48241043 102.28938007 C308.01619841 102.28985483 306.54998639 102.29033072 305.08377437 102.29080774 C303.99309003 102.2911623 303.99309003 102.2911623 302.88037166 102.29152403 C299.19628944 102.29272525 295.51220722 102.29394069 291.828125 102.29516602 C291.09700241 102.29540617 290.36587981 102.29564632 289.61260199 102.29589374 C265.9019962 102.3037886 242.19144041 102.3272237 218.48085645 102.35972196 C193.42368194 102.39400331 168.36653669 102.41372963 143.30933833 102.41702431 C140.5597488 102.41744187 137.81015928 102.41792143 135.06056976 102.41844749 C134.04500047 102.41863228 134.04500047 102.41863228 133.00891462 102.4188208 C122.10324066 102.42115493 111.19762467 102.43682671 100.29197138 102.45728934 C89.33422776 102.47752384 78.37654446 102.48270192 67.41878417 102.47351871 C61.47987412 102.46895915 55.54115267 102.47095618 49.60226822 102.49028015 C44.1690842 102.50780651 38.73622783 102.50700013 33.30304083 102.49138286 C31.33395853 102.48899071 29.36485415 102.49341278 27.39580575 102.50521151 C24.72520559 102.52022708 22.05578198 102.51073002 19.38521194 102.49498463 C18.23051871 102.51031794 18.23051871 102.51031794 17.05249834 102.52596101 C11.886924 102.45919918 8.98590645 101.24464221 5 98 C1.39314316 93.90573007 -0.13030581 91.63076421 -0.09765625 86.2109375 C-0.09443359 85.26992188 -0.09121094 84.32890625 -0.08789062 83.359375 C-0.07951172 82.37453125 -0.07113281 81.3896875 -0.0625 80.375 C-0.05798828 79.38242187 -0.05347656 78.38984375 -0.04882812 77.3671875 C-0.03702145 74.9113984 -0.020554 72.45572896 0 70 C2.45275141 68.7736243 4.0505781 68.88584686 6.7890625 68.90234375 C7.73007813 68.90556641 8.67109375 68.90878906 9.640625 68.91210938 C10.62546875 68.92048828 11.6103125 68.92886719 12.625 68.9375 C13.61757812 68.94201172 14.61015625 68.94652344 15.6328125 68.95117188 C18.0886016 68.96297855 20.54427104 68.979446 23 69 C22.52691406 68.40316406 22.05382812 67.80632812 21.56640625 67.19140625 C8.46853231 50.00842543 -0.28929297 30.50179862 -0.0625 8.625 C-0.05798828 7.79355469 -0.05347656 6.96210938 -0.04882812 6.10546875 C-0.03713164 4.07028103 -0.01919935 2.03513077 0 0 Z " fill="#5861C7" transform="translate(0,410)"/>
<path d="M0 0 C6.19298642 -0.09888089 12.38551332 -0.17147486 18.57910156 -0.21972656 C20.68595382 -0.23984126 22.79275025 -0.26713667 24.89941406 -0.30175781 C27.92787447 -0.35028168 30.95559678 -0.37297016 33.984375 -0.390625 C35.39707672 -0.42159271 35.39707672 -0.42159271 36.83831787 -0.45318604 C37.71892883 -0.45348816 38.59953979 -0.45379028 39.50683594 -0.45410156 C40.27960876 -0.46298401 41.05238159 -0.47186646 41.84857178 -0.48101807 C45.12988858 0.25262141 46.11523425 1.18875186 48 4 C48.58991749 7.39806126 48.52174574 10.75866109 48.48101807 14.19976807 C48.48443577 15.24857517 48.48785347 16.29738227 48.49137473 17.37797141 C48.49798015 20.90362335 48.47593275 24.42851938 48.45410156 27.95410156 C48.45297367 30.4768268 48.45360581 32.99955336 48.45587158 35.52227783 C48.4567834 40.95930909 48.44541474 46.39609554 48.42292023 51.83307648 C48.3904183 59.69399047 48.37999508 67.55481161 48.37496826 75.41578552 C48.36621275 88.16949557 48.33959028 100.92310332 48.30175781 113.67675781 C48.26504431 126.06607552 48.23672933 138.45536544 48.21972656 150.84472656 C48.21867567 151.60834654 48.21762477 152.37196651 48.21654204 153.15872648 C48.2113219 156.98956601 48.20626707 160.82040574 48.20129442 164.65124559 C48.15982441 196.43425439 48.08608235 228.21707295 48 260 C32.49 260 16.98 260 1 260 C0.8233475 244.41672601 0.65367557 228.83350225 0.5 213.25 C0.48812275 212.0464386 0.4762455 210.8428772 0.46400833 209.60284424 C0.00037456 162.06833818 -0.08732172 114.53649976 -0.0625 67 C-0.06207577 66.1634041 -0.06165154 65.3268082 -0.06121445 64.46486092 C-0.05013302 42.9765625 -0.03003396 21.48828043 0 0 Z " fill="#A1F0FB" transform="translate(407,193)"/>
<path d="M0 0 C0.96767223 -0.00583219 1.93534446 -0.01166439 2.93234009 -0.01767331 C3.98758489 -0.01389399 5.04282969 -0.01011467 6.13005161 -0.00622082 C7.25715079 -0.01004636 8.38424997 -0.01387191 9.54550368 -0.01781338 C13.33020829 -0.0281496 17.11476137 -0.02415 20.89947605 -0.02018261 C23.60966017 -0.02343471 26.31983581 -0.02964689 29.03001499 -0.03567028 C35.63209616 -0.04842191 42.23413666 -0.05021041 48.83622807 -0.04787002 C54.20219512 -0.04608728 59.56814983 -0.04783554 64.93411541 -0.05209446 C65.69770533 -0.05268965 66.46129524 -0.05328484 67.24802424 -0.05389806 C68.79923419 -0.05510981 70.35044413 -0.05632394 71.90165407 -0.05754044 C86.44996324 -0.06841769 100.99824923 -0.06625256 115.5465597 -0.06015559 C128.85679562 -0.0549858 142.16695837 -0.06624318 155.47717982 -0.08525381 C169.14374399 -0.1046238 182.81027353 -0.11288972 196.47685152 -0.10913056 C204.14975808 -0.1072173 211.82260234 -0.10971826 219.4954977 -0.1238451 C226.02721374 -0.13574916 232.55882914 -0.13717476 239.09054654 -0.12505493 C242.4229958 -0.11915937 245.75510975 -0.11970765 249.08757114 -0.13005733 C252.70029192 -0.14046984 256.31251507 -0.13246781 259.92521763 -0.11974621 C260.97823171 -0.12712049 262.03124579 -0.13449478 263.11616939 -0.14209253 C269.44331712 -0.09509901 273.91885446 0.57702381 278.91925144 4.79744434 C279.38847019 5.34013966 279.85768894 5.88283497 280.34112644 6.44197559 C280.82065769 6.97178028 281.30018894 7.50158497 281.79425144 8.04744434 C287.36460306 17.52710899 285.09112644 30.21155976 285.09112644 40.25447559 C184.77112644 40.25447559 84.45112644 40.25447559 -18.90887356 40.25447559 C-18.90887356 11.65137138 -18.90887356 11.65137138 -13.59637356 5.87947559 C-13.02274075 5.23236622 -12.44910793 4.58525684 -11.85809231 3.91853809 C-8.26836915 0.85396482 -4.64347138 0.00483019 0 0 Z " fill="#FFAC8C" transform="translate(122.90887355804443,-0.25447559356689453)"/>
<path d="M0 0 C3.4534417 1.48108873 5.64921326 3.42821699 8.265625 6.10546875 C9.07386719 6.92466797 9.88210937 7.74386719 10.71484375 8.58789062 C11.55144531 9.44576172 12.38804688 10.30363281 13.25 11.1875 C14.89852269 12.87095998 16.54953636 14.55198456 18.203125 16.23046875 C19.29608887 17.35038208 19.29608887 17.35038208 20.41113281 18.49291992 C25.09574034 23.02953202 29.89181436 27.25903113 35.24609375 30.98828125 C41.22760424 35.50452006 46.06700665 40.04430416 47.83691406 47.54833984 C48.91457433 56.92026012 48.54407752 66.28972564 48.09863281 75.69372559 C47.9036724 80.25237301 47.83228268 84.81454104 47.73937988 89.37619019 C47.58577594 96.25791151 47.27903585 103.11711568 47 110 C36.77 110 26.54 110 16 110 C15.94392578 106.51373047 15.94392578 106.51373047 15.88671875 102.95703125 C15.8404558 100.69643959 15.78923972 98.4360104 15.73754883 96.17553711 C15.70437468 94.60923199 15.67631942 93.04280949 15.65356445 91.47631836 C15.61987884 89.21938237 15.56755951 86.96351474 15.51171875 84.70703125 C15.50532883 84.01100296 15.4989389 83.31497467 15.49235535 82.59785461 C15.36078189 78.20873697 14.46598258 75.60034276 12 72 C12 71.34 12 70.68 12 70 C3.77371758 66.59897775 3.77371758 66.59897775 -4.90625 67.68359375 C-9.43915833 69.99806601 -10.9824341 72.2191489 -13 77 C-13.31166518 79.67458352 -13.48699924 82.13205897 -13.51171875 84.8046875 C-13.52966995 85.5286673 -13.54762115 86.25264709 -13.56611633 86.99856567 C-13.61991138 89.29065277 -13.65401402 91.58253541 -13.6875 93.875 C-13.72070049 95.43752827 -13.75519266 97.00002966 -13.79101562 98.5625 C-13.87803184 102.37502434 -13.93835714 106.18664492 -14 110 C-24.23 110 -34.46 110 -45 110 C-45.88239381 94.41104277 -45.88239381 94.41104277 -46.07421875 87.61328125 C-46.20440007 83.02226536 -46.35576209 78.44113937 -46.65966797 73.85791016 C-48.40433162 46.83329453 -48.40433162 46.83329453 -40.28613281 37.18847656 C-35.10999944 31.4543851 -29.10205161 26.70673708 -23 22 C-18.83979194 18.49099362 -14.77009616 14.90197202 -10.9375 11.03515625 C-10.28652344 10.38095703 -9.63554688 9.72675781 -8.96484375 9.05273438 C-8.31644531 8.39595703 -7.66804688 7.73917969 -7 7.0625 C-6.32066406 6.37865234 -5.64132813 5.69480469 -4.94140625 4.99023438 C-3.29191641 3.32912841 -1.6448332 1.66571487 0 0 Z " fill="#FEF6F1" transform="translate(97,355)"/>
<path d="M0 0 C14.52 0 29.04 0 44 0 C44 40.59 44 81.18 44 123 C37.73 123.33 31.46 123.66 25 124 C21.13704618 124.68011473 17.56250731 125.36780379 13.8125 126.375 C12.96365234 126.58382812 12.11480469 126.79265625 11.24023438 127.0078125 C7.34588131 127.99266046 3.5996843 129.12950521 -0.15840149 130.54898071 C-0.87803227 130.82034662 -1.59766306 131.09171253 -2.33910084 131.37130165 C-2.88719756 131.57877211 -3.43529428 131.78624256 -4 132 C-4.09341723 115.37999328 -4.16396626 98.76007164 -4.20724869 82.13986588 C-4.22787913 74.42290728 -4.25600873 66.70611175 -4.30175781 58.98925781 C-4.34161108 52.26369486 -4.36742931 45.53824999 -4.37635398 38.81257224 C-4.38157138 35.25089892 -4.39384353 31.68956345 -4.42292023 28.12799835 C-4.45510691 24.15330139 -4.45596037 20.17893577 -4.45410156 16.20410156 C-4.46848267 15.02158813 -4.48286377 13.83907471 -4.49768066 12.62072754 C-4.49218201 11.53821716 -4.48668335 10.45570679 -4.48101807 9.34039307 C-4.48470524 8.40016422 -4.48839241 7.45993538 -4.49219131 6.49121475 C-4 4 -4 4 0 0 Z " fill="#A1F0FB" transform="translate(61,193)"/>
<path d="M0 0 C1.26108078 0.00007553 2.52216156 0.00015106 3.82145691 0.00022888 C5.19778482 0.0053355 6.57411234 0.0105515 7.95043945 0.01586914 C9.35862681 0.01773453 10.76681481 0.01915786 12.17500305 0.02015686 C15.878894 0.02397251 19.58274566 0.03379467 23.28662109 0.04486084 C27.06713326 0.05509542 30.84765179 0.05965887 34.62817383 0.06469727 C42.04420943 0.0754178 49.46020455 0.09300689 56.8762207 0.11352539 C56.8762207 9.02352539 56.8762207 17.93352539 56.8762207 27.11352539 C53.73477539 27.1509082 50.59333008 27.18829102 47.35668945 27.22680664 C44.31845076 27.27300099 41.2803363 27.32424228 38.2421875 27.37597656 C36.12865734 27.40925667 34.01503765 27.43727892 31.90136719 27.45996094 C28.86525265 27.49345011 25.82996095 27.54576303 22.79418945 27.60180664 C21.84722702 27.60819656 20.90026459 27.61458649 19.92460632 27.62117004 C18.60357658 27.65086128 18.60357658 27.65086128 17.25585938 27.68115234 C16.09336922 27.69780693 16.09336922 27.69780693 14.90739441 27.71479797 C12.27336464 28.23186842 11.51239338 29.00000595 9.8762207 31.11352539 C9.4618658 33.52365059 9.4618658 33.52365059 9.5851593 36.26637268 C9.59574371 37.33305679 9.60632813 38.39974091 9.61723328 39.49874878 C9.64380508 40.66914703 9.67037689 41.83954529 9.69775391 43.04541016 C9.71326294 44.27824234 9.72877197 45.51107452 9.74475098 46.78126526 C9.77854616 49.46446781 9.81738677 52.14715475 9.8628788 54.83014107 C9.93178951 59.07987218 9.9640242 63.32937808 9.9875946 67.57957458 C9.9917456 68.29746251 9.9958966 69.01535044 10.00017339 69.75499254 C10.00862115 71.22316511 10.01699787 72.69133808 10.02530515 74.15951145 C10.08310517 84.05282118 10.16618863 93.94451136 10.34570312 103.83642578 C10.46654552 110.51075228 10.53001761 117.18297887 10.52865857 123.85843319 C10.53024684 127.3888859 10.5605868 130.91371502 10.66140175 134.44284248 C11.25006784 155.88138797 11.25006784 155.88138797 7.32061386 161.23157883 C3.59380516 164.59435113 -0.51072049 166.51383451 -5.16996193 168.26730156 C-8.25958949 169.60545962 -10.50698294 171.55788216 -13.0612793 173.73852539 C-17.05658562 177.11352539 -17.05658562 177.11352539 -18.1237793 177.11352539 C-18.217218 155.57348008 -18.28775627 134.03346819 -18.33102798 112.49326134 C-18.35165378 102.49177653 -18.37977475 92.49041765 -18.42553711 82.48901367 C-18.46540429 73.77185057 -18.49121199 65.05477866 -18.50013328 56.33752692 C-18.50534822 51.72171275 -18.51760561 47.10615948 -18.54669952 42.49042892 C-18.57386675 38.14512588 -18.58222167 33.800191 -18.57621002 29.4548111 C-18.57730968 27.86087925 -18.58525594 26.26693499 -18.6006012 24.67307663 C-18.62055062 22.49395237 -18.61570182 20.31621179 -18.60479736 18.13705444 C-18.60848454 16.91844412 -18.61217171 15.69983379 -18.61597061 14.44429588 C-17.85500559 9.2946726 -15.35894168 6.22818412 -11.5612793 2.80102539 C-7.64173129 0.08749215 -4.65368936 -0.0092888 0 0 Z " fill="#707BF9" transform="translate(48.123779296875,165.886474609375)"/>
<path d="M0 0 C0.637882 0.99129913 0.637882 0.99129913 1.28865051 2.00262451 C2.87894742 4.28961856 2.87894742 4.28961856 5.82841492 4.48101807 C6.9764711 4.47213562 8.12452728 4.46325317 9.30737305 4.45410156 C11.25905647 4.45364838 11.25905647 4.45364838 13.25016785 4.45318604 C14.67069102 4.43275932 16.09120796 4.41189533 17.51171875 4.390625 C18.9647392 4.38316369 20.41776972 4.37747024 21.87080383 4.37347412 C25.69332715 4.35820878 29.51524153 4.3189202 33.33752441 4.2746582 C37.23860435 4.23372432 41.13978278 4.21546719 45.04101562 4.1953125 C52.69428789 4.15242596 60.34705859 4.08416485 68 4 C68.33 2.68 68.66 1.36 69 0 C93.89546633 -0.11682863 118.79089155 -0.20498602 143.68657684 -0.25906086 C155.2462226 -0.2848367 166.80569798 -0.31997562 178.36523438 -0.37719727 C188.44114563 -0.42705092 198.51693348 -0.45929552 208.59296465 -0.47044247 C213.92764596 -0.47695785 219.26197425 -0.49225831 224.59654236 -0.52865028 C229.61984659 -0.56264053 234.64265309 -0.57304674 239.6660614 -0.56553841 C241.50749417 -0.56691159 243.34894393 -0.57682597 245.1902771 -0.59602737 C263.04222679 -0.77302318 263.04222679 -0.77302318 269 5 C269.7568169 5.6616417 269.7568169 5.6616417 270.52892303 6.33664989 C274.94859717 10.77130065 274.23092707 13.07834365 275 20 C175.34 20 75.68 20 -27 20 C-25.96955094 10.72595847 -25.38994294 8.68291376 -19 3 C-13.68611037 -1.04867781 -6.42748271 -1.08984019 0 0 Z " fill="#FF8354" transform="translate(132,20)"/>
<path d="M0 0 C10.92635862 6.69947399 18.75540382 16.41943311 22.08984375 28.89453125 C22.44072951 32.20042217 22.42233875 35.44910768 22.33984375 38.76953125 C22.3346875 39.62289062 22.32953125 40.47625 22.32421875 41.35546875 C22.24538352 47.5834517 22.24538352 47.5834517 21.08984375 49.89453125 C19.13176791 50.35915942 17.17360993 50.82344708 15.21484375 51.28515625 C9.51332685 52.92015007 5.99056943 56.49522626 3.05859375 61.45703125 C1.22000851 66.08314896 1.180218 70.96502658 1.08984375 75.89453125 C-6.17983885 79.95742771 -12.36046312 81.38806373 -20.59765625 81.39453125 C-21.38052002 81.40033203 -22.16338379 81.40613281 -22.9699707 81.41210938 C-34.29997342 81.17435882 -42.9838073 76.47897545 -51.14453125 68.7890625 C-59.66251428 59.74270835 -63.08503687 50.8326508 -63.16015625 38.64453125 C-63.18078125 37.82339844 -63.20140625 37.00226563 -63.22265625 36.15625 C-63.28975376 25.5716171 -58.75509102 16.24945916 -51.68359375 8.43359375 C-37.64083383 -4.98504351 -17.54474526 -8.74166421 0 0 Z " fill="#FE8354" transform="translate(214.91015625,68.10546875)"/>
<path d="M0 0 C25.08 0 50.16 0 76 0 C76 19.8 76 39.6 76 60 C50.92 60 25.84 60 0 60 C0 40.2 0 20.4 0 0 Z " fill="#6871E6" transform="translate(308,215)"/>
<path d="M0 0 C25.08 0 50.16 0 76 0 C76 19.8 76 39.6 76 60 C50.92 60 25.84 60 0 60 C0 40.2 0 20.4 0 0 Z " fill="#6AEBFB" transform="translate(129,215)"/>
<path d="M0 0 C24.75 0 49.5 0 75 0 C75 19.8 75 39.6 75 60 C50.25 60 25.5 60 0 60 C0 40.2 0 20.4 0 0 Z " fill="#D476E2" transform="translate(219,215)"/>
<path d="M0 0 C0.33 0 0.66 0 1 0 C1.10957031 0.87140625 1.21914063 1.7428125 1.33203125 2.640625 C4.93504011 29.70713056 15.61192182 52.2998244 36.6875 70.1875 C58.0707643 86.52335901 83.2571095 93.52341362 110 91 C136.21180013 87.03427687 160.06431144 73.88210899 176.1640625 52.6875 C184.98589722 39.77383556 190.950029 26.37383758 194 11 C194.33 11 194.66 11 195 11 C196.55050562 31.7164779 186.02174244 52.44664061 173 68 C156.46883542 87.05014453 134.0308258 98.95722225 109 102 C105.7680763 102.15063026 102.53952778 102.16713686 99.30444336 102.17700195 C98.35720901 102.18357315 97.40997467 102.19014435 96.43403625 102.19691467 C93.31930448 102.2165254 90.20462047 102.2282784 87.08984375 102.23828125 C86.02256105 102.24235678 84.95527836 102.2464323 83.85565376 102.25063133 C78.21423668 102.27143263 72.57284354 102.28576401 66.93139648 102.29516602 C61.10840762 102.30626169 55.28579758 102.340715 49.46294308 102.38033772 C44.97879828 102.40646621 40.49474471 102.41485415 36.01053047 102.41844749 C33.86353539 102.42331747 31.71654448 102.4349431 29.56962395 102.45348549 C26.56816125 102.47781254 23.56769304 102.47692435 20.56616211 102.4699707 C19.6823587 102.48278076 18.7985553 102.49559082 17.88796997 102.50878906 C12.42898163 102.46271474 9.33191429 101.63116459 5 98 C1.39314316 93.90573007 -0.13030581 91.63076421 -0.09765625 86.2109375 C-0.09443359 85.26992188 -0.09121094 84.32890625 -0.08789062 83.359375 C-0.07951172 82.37453125 -0.07113281 81.3896875 -0.0625 80.375 C-0.05798828 79.38242187 -0.05347656 78.38984375 -0.04882812 77.3671875 C-0.03702145 74.9113984 -0.020554 72.45572896 0 70 C2.45275141 68.7736243 4.0505781 68.88584686 6.7890625 68.90234375 C7.73007813 68.90556641 8.67109375 68.90878906 9.640625 68.91210938 C10.62546875 68.92048828 11.6103125 68.92886719 12.625 68.9375 C13.61757812 68.94201172 14.61015625 68.94652344 15.6328125 68.95117188 C18.0886016 68.96297855 20.54427104 68.979446 23 69 C22.52691406 68.40316406 22.05382812 67.80632812 21.56640625 67.19140625 C8.46853231 50.00842543 -0.28929297 30.50179862 -0.0625 8.625 C-0.05798828 7.79355469 -0.05347656 6.96210938 -0.04882812 6.10546875 C-0.03713164 4.07028103 -0.01919935 2.03513077 0 0 Z " fill="#B665C3" transform="translate(0,410)"/>
<path d="M0 0 C51.48 0 102.96 0 156 0 C156 10 156 10 154.125 13.0625 C150.75612771 16.13411885 148.80633946 16.13020551 144.32633972 16.15390015 C142.51559715 16.16680084 142.51559715 16.16680084 140.66827393 16.17996216 C139.32336469 16.1843975 137.97845499 16.18869584 136.63354492 16.19287109 C135.22265928 16.20077133 133.81177565 16.20904023 132.40089417 16.21765137 C127.76077202 16.24387966 123.1206408 16.25917935 118.48046875 16.2734375 C116.88388882 16.27879676 115.28730895 16.28417427 113.69072914 16.28956985 C107.05015819 16.31119937 100.40958969 16.32993668 93.76899242 16.34119225 C84.24796431 16.35743551 74.72734406 16.39062119 65.20646971 16.44759309 C58.51426216 16.48627514 51.82216378 16.50582283 45.12984735 16.51111281 C41.13162385 16.51476858 37.13383526 16.52681302 33.13573265 16.55921555 C29.37387349 16.58926633 25.61271305 16.59561926 21.85075951 16.58383179 C20.47086992 16.5836108 19.09094821 16.59193714 17.7111702 16.60948563 C7.26383389 16.73511474 7.26383389 16.73511474 4.07943153 14.88289261 C2.70283508 13.52603149 2.70283508 13.52603149 1 11 C0.67 10.67 0.34 10.34 0 10 C0 6.7 0 3.4 0 0 Z " fill="#4E56B0" transform="translate(178,480)"/>
<path d="M0 0 C3.26189271 -0.03241151 6.52387097 -0.05263717 9.78584361 -0.07533407 C10.96979842 -0.0912686 12.15375323 -0.10720312 13.37358546 -0.12362051 C14.44837028 -0.12891523 15.52315509 -0.13420996 16.63050914 -0.13966513 C17.56962012 -0.14874647 18.50873111 -0.15782782 19.4763 -0.16718435 C21.71650767 0.0633378 21.71650767 0.0633378 23.71650767 2.0633378 C23.05650767 2.0633378 22.39650767 2.0633378 21.71650767 2.0633378 C21.37619517 3.1770878 21.37619517 3.1770878 21.02900767 4.3133378 C19.40752369 7.71073281 17.87472214 9.02804404 14.71650767 11.0633378 C9.91256183 12.69351628 5.74682669 13.31164978 0.68661571 13.30384684 C0.0150157 13.30555569 -0.65658431 13.30726454 -1.34853584 13.30902517 C-3.57948903 13.31229672 -5.81013561 13.30135542 -8.04106069 13.29038858 C-9.64798404 13.28982396 -11.2549079 13.29014202 -12.86183095 13.29127359 C-17.21049682 13.29184612 -21.55905179 13.28010799 -25.90769196 13.26612568 C-30.45739655 13.25360167 -35.00710384 13.2524465 -39.55682302 13.25007486 C-48.166236 13.243865 -56.77559803 13.22746087 -65.38498861 13.20737588 C-75.18906849 13.18500151 -84.99315084 13.17401958 -94.79724991 13.16398501 C-114.95935912 13.14309421 -135.12142251 13.10792783 -155.28349233 13.0633378 C-154.95349233 9.1033378 -154.62349233 5.1433378 -154.28349233 1.0633378 C-135.47027662 0.93181086 -116.65705397 0.80133366 -97.84382176 0.67218637 C-89.10528377 0.61217349 -80.36674846 0.55181264 -71.62821889 0.4905839 C-63.99710004 0.43711545 -56.36597669 0.38434946 -48.73484755 0.33237076 C-44.70753824 0.30491609 -40.68023174 0.27714804 -36.6529305 0.24853373 C-28.58562947 0.19142755 -20.51835624 0.139473 -12.45094919 0.09976768 C-8.30046387 0.0781931 -4.1503084 0.04379949 0 0 Z " fill="#666FE5" transform="translate(488.28349232673645,478.93666219711304)"/>
<path d="M0 0 C12.41320265 -0.11298636 24.82606347 -0.20470822 37.23966408 -0.25906086 C43.00388324 -0.28514816 48.76773219 -0.32053125 54.53173828 -0.37719727 C60.09495047 -0.43154666 65.65780669 -0.46142706 71.22126389 -0.47438622 C73.34316995 -0.48362073 75.46505665 -0.50165376 77.58681107 -0.52865028 C80.56041728 -0.56497882 83.53255503 -0.56994366 86.50634766 -0.56762695 C87.3824469 -0.58560333 88.25854614 -0.60357971 89.16119385 -0.62210083 C93.41827434 -0.58624294 96.16269206 -0.31028109 99.54574585 2.40657043 C102 5 102 5 102.76171875 7.0625 C102.60687968 11.10461478 102.29204268 12.62902687 99.6875 15.9375 C94.99311626 19.54016659 90.60858874 19.13675495 84.9387207 19.11352539 C84.01169342 19.11367142 83.08466614 19.11381744 82.12954712 19.1139679 C79.06160146 19.11327054 75.99371632 19.10548637 72.92578125 19.09765625 C70.8001458 19.09579144 68.67450993 19.09436784 66.5488739 19.09336853 C60.95110897 19.08954829 55.35336993 19.07972219 49.75561523 19.06866455 C44.04476268 19.05843984 38.33390594 19.05386863 32.62304688 19.04882812 C21.41535137 19.0380995 10.20768189 19.02050667 -1 19 C-0.67 12.73 -0.34 6.46 0 0 Z " fill="#FEF4EF" transform="translate(196,409)"/>
<path d="M0 0 C3.51793069 2.04725183 5.29336649 4.01059723 7.7734375 7.203125 C19.55224402 21.99895915 42.77587755 29.76653519 61 32 C61 32.33 61 32.66 61 33 C51.32490347 33.09277792 41.64996063 33.16380435 31.97451591 33.20724869 C27.48154841 33.22810237 22.9888858 33.25637917 18.49609375 33.30175781 C14.15833677 33.34529518 9.82087262 33.3691538 5.48291397 33.37950897 C3.82992062 33.38688623 2.17694287 33.40129247 0.52407455 33.42292023 C-1.79566021 33.4520602 -4.11419299 33.45595174 -6.43408203 33.45410156 C-8.41264694 33.46742523 -8.41264694 33.46742523 -10.43118286 33.48101807 C-15.77792295 32.76036512 -18.80614207 30.35519009 -22.3125 26.375 C-24.71332334 22.99606345 -25.12233115 21.30697095 -25.09765625 17.2109375 C-25.09443359 16.26992188 -25.09121094 15.32890625 -25.08789062 14.359375 C-25.07951172 13.37453125 -25.07113281 12.3896875 -25.0625 11.375 C-25.05798828 10.38242187 -25.05347656 9.38984375 -25.04882812 8.3671875 C-25.03702145 5.9113984 -25.020554 3.45572896 -25 1 C-18.35380655 -2.32309672 -7.14023834 -1.21687611 0 0 Z " fill="#5861C7" transform="translate(25,479)"/>
<path d="M0 0 C5.96450499 2.72663085 10.1124208 7.21391047 12.61328125 13.3125 C13.51516518 20.65341567 13.16000317 27.28284724 8.61328125 33.3125 C4.80521347 37.39182741 0.55238876 39.97870755 -5.03515625 40.61328125 C-11.79054691 40.64231588 -17.17005197 40.35476918 -22.33203125 35.47265625 C-28.05883472 29.24736584 -28.80609937 24.76137309 -28.734375 16.359375 C-28.06136208 10.46105953 -25.06668174 6.86953887 -20.82421875 2.9375 C-14.34550143 -1.38164488 -7.60351122 -2.19020945 0 0 Z " fill="#6AEAFB" transform="translate(244.38671875,118.6875)"/>
<path d="M0 0 C1.86368225 -0.00006042 1.86368225 -0.00006042 3.76501465 -0.00012207 C7.05768173 0.00659871 10.34913433 0.03655553 13.64154053 0.07556152 C15.65460484 0.09373515 17.66703934 0.09632038 19.68017578 0.09277344 C23.55789967 0.08611313 27.43485359 0.10123853 31.3125 0.125 C33.10802307 0.12530212 33.10802307 0.12530212 34.93981934 0.12561035 C45.50925994 0.27558804 45.50925994 0.27558804 50.15625 3.59375 C52.65656654 7.34422482 52.69228554 9.15231266 52.15625 13.59375 C49.61487841 16.75329305 48.01002341 18.30915886 44.15625 19.59375 C42.32727148 19.70180553 40.49467492 19.75255017 38.66259766 19.77075195 C37.53777985 19.78358719 36.41296204 19.79642242 35.25405884 19.80964661 C34.03842255 19.81703354 32.82278625 19.82442047 31.5703125 19.83203125 C30.32124115 19.840103 29.0721698 19.84817474 27.7852478 19.85649109 C25.14064831 19.87033008 22.4961734 19.88134744 19.8515625 19.88891602 C16.46977896 19.89998319 13.08865292 19.93439314 9.70710182 19.97408772 C6.47407075 20.00656584 3.24098184 20.01103312 0.0078125 20.01953125 C-1.80956924 20.04579338 -1.80956924 20.04579338 -3.66366577 20.07258606 C-4.7947879 20.06966049 -5.92591003 20.06673492 -7.09130859 20.0637207 C-8.5799794 20.07252007 -8.5799794 20.07252007 -10.09872437 20.08149719 C-13.60879182 19.45781429 -15.28753585 18.02540594 -17.84375 15.59375 C-19.43018982 12.42087035 -19.81174489 8.97260009 -18.84375 5.59375 C-13.46478789 -0.6567461 -7.85961591 -0.10765148 0 0 Z " fill="#FFAC8D" transform="translate(293.84375,132.40625)"/>
<path d="M0 0 C0.99962769 -0.00852997 1.99925537 -0.01705994 3.0291748 -0.02584839 C4.67267662 -0.02448883 4.67267662 -0.02448883 6.34938049 -0.02310181 C7.5040683 -0.02981903 8.6587561 -0.03653625 9.84843445 -0.04345703 C13.67634856 -0.06249972 17.50408795 -0.06636429 21.33204651 -0.06851196 C23.31568429 -0.07331242 25.2993221 -0.07811609 27.28295857 -0.08343279 C33.52109525 -0.09971823 39.75917421 -0.10460157 45.99732971 -0.10317993 C52.43274651 -0.10197807 58.86782816 -0.12308793 65.30316013 -0.15466726 C70.82851885 -0.18081513 76.353768 -0.19154788 81.87918812 -0.19026911 C85.1792341 -0.18975907 88.47891473 -0.19730009 91.7789135 -0.21662521 C95.45893778 -0.23615899 99.13809305 -0.23049618 102.81813049 -0.21841431 C103.91177414 -0.22965332 105.00541779 -0.24089233 106.13220215 -0.25247192 C107.13464966 -0.24408295 108.13709717 -0.23569397 109.16992188 -0.22705078 C110.03988517 -0.22814032 110.90984846 -0.22922985 111.80617428 -0.2303524 C114.93908953 0.43545062 116.17582044 1.80090633 118.14845276 4.26742554 C117.97091663 7.28553976 117.31110061 8.10477769 115.14845276 10.26742554 C113.02103519 10.52190113 113.02103519 10.52190113 110.33450317 10.52812195 C109.31797668 10.53520676 108.3014502 10.54229156 107.25411987 10.54959106 C106.1345842 10.54711365 105.01504852 10.54463623 103.86158752 10.54208374 C102.09810471 10.54975014 102.09810471 10.54975014 100.29899597 10.55757141 C97.06962932 10.56911308 93.84042132 10.57153724 90.6110394 10.56900811 C87.91711637 10.56794007 85.22321714 10.57281751 82.5292992 10.57761353 C76.17471191 10.58871774 69.82018373 10.5891411 63.46559143 10.58309937 C56.90583176 10.57705853 50.34628653 10.58937111 43.78656346 10.61066943 C38.15848342 10.62827225 32.53047171 10.63428887 26.90236515 10.63103169 C23.53925719 10.62921646 20.17630216 10.63187856 16.81321907 10.64574623 C13.06354706 10.65803146 9.31437603 10.65136618 5.56471252 10.63973999 C3.88844536 10.6512056 3.88844536 10.6512056 2.17831421 10.66290283 C1.1589679 10.65588852 0.13962158 10.64887421 -0.91061401 10.64164734 C-2.2410129 10.64189895 -2.2410129 10.64189895 -3.59828854 10.64215565 C-6.32420322 10.18882008 -7.24524693 9.48914789 -8.85154724 7.26742554 C-8.72654724 4.70492554 -8.72654724 4.70492554 -7.85154724 2.26742554 C-4.6149 0.10966071 -3.73425123 0.01439311 0 0 Z " fill="#FFAA89" transform="translate(201.85154724121094,366.7325744628906)"/>
<path d="M0 0 C1.29704865 -0.00956978 1.29704865 -0.00956978 2.62030029 -0.01933289 C4.03269989 -0.02100212 4.03269989 -0.02100212 5.47363281 -0.02270508 C6.9186618 -0.02769768 6.9186618 -0.02769768 8.3928833 -0.03279114 C10.43737306 -0.03786608 12.48187114 -0.04019929 14.52636719 -0.04003906 C17.6495543 -0.04221735 20.77238366 -0.06034439 23.89550781 -0.0793457 C25.8798816 -0.08228117 27.86425707 -0.08426494 29.84863281 -0.08520508 C31.24888702 -0.09598335 31.24888702 -0.09598335 32.6774292 -0.10697937 C40.99028659 -0.07782702 40.99028659 -0.07782702 44.92675781 2.14526367 C47.5274887 5.17944971 47.93485651 6.68363786 47.86425781 10.70776367 C46.84731697 14.43654676 45.96107326 15.8249048 42.92675781 18.14526367 C40.19127025 19.05709286 38.53777543 19.28045602 35.71826172 19.30639648 C34.87373444 19.31600403 34.02920715 19.32561157 33.15908813 19.33551025 C31.79498306 19.34188507 31.79498306 19.34188507 30.40332031 19.34838867 C29.46499359 19.35408875 28.52666687 19.35978882 27.55990601 19.36566162 C25.57445401 19.37510761 23.58898635 19.38164401 21.60351562 19.38549805 C18.57035918 19.39520415 15.53788025 19.42623153 12.50488281 19.45776367 C10.57519933 19.4642939 8.64551101 19.4695443 6.71582031 19.47338867 C5.35778793 19.49190887 5.35778793 19.49190887 3.97232056 19.51080322 C-0.85176821 19.49378744 -4.19812691 19.35400574 -8.07324219 16.14526367 C-10.57355873 12.39478886 -10.60927773 10.58670101 -10.07324219 6.14526367 C-7.63574219 3.27026367 -7.63574219 3.27026367 -5.07324219 1.14526367 C-3.53900824 -0.38897027 -2.13757082 0.01065997 0 0 Z " fill="#FFAA8A" transform="translate(317.0732421875,408.854736328125)"/>
<path d="M0 0 C0.72699097 -0.00511093 1.45398193 -0.01022186 2.20300293 -0.01548767 C4.61271332 -0.02941874 7.02213882 -0.02842427 9.43188477 -0.02612305 C11.10335904 -0.03000815 12.77483233 -0.03434243 14.44630432 -0.03910828 C17.95267942 -0.04657811 21.45895385 -0.04627379 24.96533203 -0.04101562 C29.4626027 -0.03522096 33.95946153 -0.05214801 38.45666409 -0.0753603 C41.90959591 -0.09008025 45.36242818 -0.09097171 48.81538582 -0.08785057 C50.47361123 -0.08836469 52.13184208 -0.09361948 53.79003716 -0.10366249 C56.10769405 -0.1159758 58.42454388 -0.10926657 60.7421875 -0.09765625 C62.72169655 -0.09860039 62.72169655 -0.09860039 64.74119568 -0.0995636 C67.93579102 0.2746582 67.93579102 0.2746582 69.90101624 1.63386536 C70.93579102 3.2746582 70.93579102 3.2746582 70.68579102 5.8996582 C69.93579102 8.2746582 69.93579102 8.2746582 68.93579102 9.2746582 C66.5734435 9.37491705 64.24032243 9.41084758 61.87744141 9.40405273 C60.7701342 9.40668121 60.7701342 9.40668121 59.64045715 9.40936279 C57.18809695 9.41378186 54.73580826 9.41084284 52.28344727 9.4074707 C50.58572882 9.4081438 48.88801047 9.40911387 47.19029236 9.41036987 C43.62668951 9.41184698 40.06311167 9.40969216 36.49951172 9.4050293 C31.92490424 9.39933633 27.35035548 9.40260819 22.77575016 9.40860176 C19.26797542 9.41221072 15.76021466 9.41106716 12.2524395 9.40847397 C10.56548493 9.40780541 8.87852911 9.40863067 7.191576 9.41095352 C4.83552807 9.41348505 2.47957593 9.40963216 0.12353516 9.40405273 C-0.57835937 9.40607697 -1.28025391 9.4081012 -2.00341797 9.41018677 C-6.8356817 9.38892185 -6.8356817 9.38892185 -9.06420898 8.2746582 C-9.18920898 5.3996582 -9.18920898 5.3996582 -9.06420898 2.2746582 C-6.16647095 -0.62307983 -4.05687248 0.01417236 0 0 Z " fill="#FFF6F1" transform="translate(284.064208984375,71.725341796875)"/>
<path d="M0 0 C1.29474243 -0.00630432 2.58948486 -0.01260864 3.92346191 -0.019104 C5.34285619 -0.01552433 6.76224924 -0.0114224 8.18164062 -0.00683594 C9.63130763 -0.00818263 11.08097419 -0.0101232 12.53063965 -0.01263428 C15.57043758 -0.01558536 18.61011805 -0.0112885 21.64990234 -0.00195312 C25.55083311 0.0094415 29.4514887 0.00288193 33.35240936 -0.00909805 C36.346355 -0.01631715 39.34023515 -0.01402852 42.33418274 -0.00884247 C43.77273084 -0.0075061 45.21128484 -0.00915324 46.64982605 -0.01380157 C48.65847666 -0.01886734 50.66714806 -0.00978038 52.67578125 0 C53.82002563 0.00159119 54.96427002 0.00318237 56.14318848 0.00482178 C58.83789062 0.25878906 58.83789062 0.25878906 60.83789062 2.25878906 C61.21289062 4.69628906 61.21289062 4.69628906 60.83789062 7.25878906 C57.65026486 10.43394639 55.13702525 10.63728661 50.73999023 10.64697266 C48.8930381 10.66115738 48.8930381 10.66115738 47.0087738 10.67562866 C45.66925738 10.67025937 44.32974389 10.66410653 42.99023438 10.65722656 C41.61308132 10.65924817 40.23592931 10.66216034 38.85877991 10.66592407 C35.97630596 10.67034191 33.09411135 10.66393316 30.21166992 10.64990234 C26.51702921 10.63279423 22.82304151 10.64266464 19.12842464 10.66061974 C16.28625057 10.67145873 13.44423143 10.66801109 10.60205269 10.66023636 C9.23968999 10.65823548 7.87731322 10.66068972 6.51496696 10.66767502 C4.61211287 10.6752922 2.70920942 10.6616239 0.80639648 10.64697266 C-0.2763002 10.64458588 -1.35899689 10.6421991 -2.47450256 10.63973999 C-5.16210938 10.25878906 -5.16210938 10.25878906 -7.01560974 8.89468384 C-8.63242569 6.5877134 -8.51470979 5.00907233 -8.16210938 2.25878906 C-5.41199338 -0.49132693 -3.85024996 0.00535416 0 0 Z " fill="#FFAF90" transform="translate(230.162109375,287.7412109375)"/>
<path d="M0 0 C1.25147324 -0.00953201 2.50294647 -0.01906403 3.79234314 -0.02888489 C5.16437813 -0.02862347 6.53641314 -0.02768644 7.90844727 -0.02612305 C9.31087878 -0.03000873 10.71330911 -0.03434313 12.11573792 -0.03910828 C15.05717786 -0.04657615 17.99849779 -0.04627529 20.93994141 -0.04101562 C24.71083303 -0.03522176 28.48123335 -0.05214663 32.25204372 -0.0753603 C35.14910254 -0.09008755 38.04604278 -0.09097072 40.9431324 -0.08785057 C42.33341507 -0.08836435 43.72370429 -0.09361274 45.11395073 -0.10366249 C47.05769994 -0.11598784 49.00154817 -0.10730638 50.9453125 -0.09765625 C52.05180649 -0.09828568 53.15830048 -0.0989151 54.29832458 -0.0995636 C57.03735352 0.2746582 57.03735352 0.2746582 58.92982483 1.63777161 C60.03735352 3.2746582 60.03735352 3.2746582 59.84985352 5.8371582 C59.03735352 8.2746582 59.03735352 8.2746582 57.03735352 10.2746582 C54.42530823 10.53535461 54.42530823 10.53535461 51.07470703 10.54931641 C49.8232338 10.55884842 48.57176056 10.56838043 47.28236389 10.57820129 C45.9103289 10.57793987 44.53829389 10.57700285 43.16625977 10.57543945 C41.76382825 10.57932513 40.36139792 10.58365954 38.95896912 10.58842468 C36.01752917 10.59589255 33.07620924 10.59559169 30.13476562 10.59033203 C26.363874 10.58453817 22.59347368 10.60146304 18.82266331 10.6246767 C15.92560449 10.63940396 13.02866425 10.64028713 10.13157463 10.63716698 C8.74129196 10.63768076 7.35100275 10.64292915 5.9607563 10.6529789 C4.01700709 10.66530424 2.07315886 10.65662279 0.12939453 10.64697266 C-0.97709946 10.64760208 -2.08359344 10.64823151 -3.22361755 10.64888 C-5.96264648 10.2746582 -5.96264648 10.2746582 -7.8551178 8.9115448 C-8.96264648 7.2746582 -8.96264648 7.2746582 -8.77514648 4.7121582 C-7.12739645 -0.2310919 -4.75992328 0.01983437 0 0 Z " fill="#FFAB8B" transform="translate(230.962646484375,384.725341796875)"/>
<path d="M0 0 C1.27472168 -0.00630432 2.54944336 -0.01260864 3.86279297 -0.019104 C5.26009254 -0.01552433 6.65739087 -0.01142239 8.0546875 -0.00683594 C9.48193427 -0.00818265 10.90918059 -0.01012323 12.33642578 -0.01263428 C15.32914595 -0.01558528 18.32174681 -0.01128876 21.31445312 -0.00195312 C25.15485123 0.00944151 28.99496982 0.00288189 32.83535767 -0.00909805 C35.7829805 -0.01631737 38.73053681 -0.01402842 41.67816162 -0.00884247 C43.09438103 -0.00750616 44.51060644 -0.00915303 45.92681885 -0.01380157 C47.90433643 -0.01886768 49.88187512 -0.00978001 51.859375 0 C53.54909424 0.00238678 53.54909424 0.00238678 55.27294922 0.00482178 C57.9296875 0.25878906 57.9296875 0.25878906 59.9296875 2.25878906 C60.28223383 5.00865041 60.40047844 6.58744345 58.78318787 8.89369202 C56.14767733 10.83473704 54.2154643 10.64660194 50.96118164 10.6628418 C49.73303238 10.67552597 48.50488312 10.68821014 47.23951721 10.70127869 C45.89795768 10.69922715 44.55639931 10.69623905 43.21484375 10.69238281 C41.83865602 10.69694392 40.46247058 10.70224928 39.08628845 10.70826721 C36.20204414 10.71720253 33.31807665 10.71477099 30.43383789 10.70483398 C26.74025288 10.69334776 23.0476244 10.7135467 19.35416508 10.74275112 C16.51193689 10.76111171 13.66993794 10.760821 10.82766533 10.7551136 C9.4661163 10.75496034 8.10455177 10.76100862 6.74305916 10.77340508 C4.83795549 10.78830608 2.93269455 10.77501254 1.02758789 10.76049805 C-0.05590439 10.76033188 -1.13939667 10.76016571 -2.25572205 10.75999451 C-5.73220819 10.14092263 -6.9460435 9.02965606 -9.0703125 6.25878906 C-8.72188733 0.3355612 -5.14788546 0.00727154 0 0 Z " fill="#FFAF90" transform="translate(141.0703125,287.7412109375)"/>
<path d="M0 0 C1.25147324 -0.00630432 2.50294647 -0.01260864 3.79234314 -0.019104 C5.16437927 -0.01552393 6.53641413 -0.0114219 7.90844727 -0.00683594 C9.31087817 -0.0081828 10.71330861 -0.01012351 12.11573792 -0.01263428 C15.05718423 -0.01558552 17.99850918 -0.01128864 20.93994141 -0.00195312 C24.71074069 0.00943103 28.48125495 0.0028887 32.25204372 -0.00909805 C35.14909512 -0.01632568 38.04607897 -0.01402441 40.9431324 -0.00884247 C42.33340552 -0.00750792 43.72368476 -0.00914689 45.11395073 -0.01380157 C47.0577368 -0.01888014 49.00154434 -0.00976717 50.9453125 0 C52.60505348 0.00238678 52.60505348 0.00238678 54.29832458 0.00482178 C57.03735352 0.25878906 57.03735352 0.25878906 60.03735352 2.25878906 C59.78174028 4.60191036 59.44464579 6.93722309 59.03735352 9.25878906 C56.30264291 10.62614437 54.11995435 10.39352851 51.05883789 10.40405273 C49.80413696 10.41043259 48.54943604 10.41681244 47.25671387 10.42338562 C45.88151081 10.42491406 44.50630723 10.42602815 43.13110352 10.42675781 C41.72627732 10.42996973 40.32145146 10.43333375 38.91662598 10.43684387 C35.97102075 10.44283541 33.02544487 10.4446837 30.07983398 10.4440918 C26.29998936 10.44399006 22.52033209 10.45765394 18.74053192 10.47486401 C15.8392449 10.48596492 12.93800348 10.48801161 10.03669739 10.48748207 C8.64280042 10.48866463 7.24890237 10.49310177 5.85502625 10.50081444 C3.90866501 10.5105773 1.96224901 10.50648167 0.01586914 10.50170898 C-1.64720276 10.50384651 -1.64720276 10.50384651 -3.34387207 10.50602722 C-5.96264648 10.25878906 -5.96264648 10.25878906 -7.96264648 8.25878906 C-8.21264648 5.25878906 -8.21264648 5.25878906 -7.96264648 2.25878906 C-5.2462649 -0.45759252 -3.80038356 0.00546905 0 0 Z " fill="#FFF6F1" transform="translate(140.962646484375,14.7412109375)"/>
<path d="M0 0 C1.27472168 -0.00630432 2.54944336 -0.01260864 3.86279297 -0.019104 C5.26009254 -0.01552433 6.65739087 -0.01142239 8.0546875 -0.00683594 C9.48193427 -0.00818265 10.90918059 -0.01012323 12.33642578 -0.01263428 C15.32914595 -0.01558528 18.32174681 -0.01128876 21.31445312 -0.00195312 C25.15485123 0.00944151 28.99496982 0.00288189 32.83535767 -0.00909805 C35.7829805 -0.01631737 38.73053681 -0.01402842 41.67816162 -0.00884247 C43.09438103 -0.00750616 44.51060644 -0.00915303 45.92681885 -0.01380157 C47.90433643 -0.01886768 49.88187512 -0.00978001 51.859375 0 C53.54909424 0.00238678 53.54909424 0.00238678 55.27294922 0.00482178 C57.9296875 0.25878906 57.9296875 0.25878906 59.9296875 2.25878906 C60.2421875 5.25878906 60.2421875 5.25878906 59.9296875 8.25878906 C56.44539997 10.58164741 55.06119894 10.51598086 50.9453125 10.53344727 C49.09824707 10.54774529 49.09824707 10.54774529 47.21386719 10.56233215 C45.86914034 10.56207075 44.52441347 10.56113382 43.1796875 10.55957031 C41.80110546 10.56345728 40.42252461 10.56779196 39.04394531 10.57255554 C36.15555945 10.58001564 33.26729582 10.57972775 30.37890625 10.57446289 C26.67642135 10.56866377 22.97443597 10.58561031 19.27203369 10.60880756 C16.42558871 10.62353346 13.57926441 10.62441829 10.73278809 10.62129784 C9.36762501 10.62181148 8.00245526 10.62705729 6.6373291 10.63710976 C4.72961233 10.64943525 2.82179468 10.64075358 0.9140625 10.63110352 C-0.17165039 10.63173294 -1.25736328 10.63236237 -2.37597656 10.63301086 C-5.0703125 10.25878906 -5.0703125 10.25878906 -6.92480469 8.89567566 C-8.53984044 6.5878517 -8.42289402 5.00892491 -8.0703125 2.25878906 C-5.33569491 -0.47582853 -3.82746577 0.00540641 0 0 Z " fill="#FFAE8F" transform="translate(320.0703125,287.7412109375)"/>
<path d="M0 0 C1.27472168 -0.00630432 2.54944336 -0.01260864 3.86279297 -0.019104 C5.26009254 -0.01552433 6.65739087 -0.01142239 8.0546875 -0.00683594 C9.48193427 -0.00818265 10.90918059 -0.01012323 12.33642578 -0.01263428 C15.32914595 -0.01558528 18.32174681 -0.01128876 21.31445312 -0.00195312 C25.15485123 0.00944151 28.99496982 0.00288189 32.83535767 -0.00909805 C35.7829805 -0.01631737 38.73053681 -0.01402842 41.67816162 -0.00884247 C43.09438103 -0.00750616 44.51060644 -0.00915303 45.92681885 -0.01380157 C47.90433643 -0.01886768 49.88187512 -0.00978001 51.859375 0 C53.54909424 0.00238678 53.54909424 0.00238678 55.27294922 0.00482178 C57.9296875 0.25878906 57.9296875 0.25878906 59.9296875 2.25878906 C60.2421875 4.75878906 60.2421875 4.75878906 59.9296875 7.25878906 C56.41807252 9.59986572 54.99172146 9.51160438 50.83764648 9.51757812 C49.58302109 9.52388245 48.32839569 9.53018677 47.03575134 9.53668213 C45.66575988 9.53310272 44.29576971 9.52900086 42.92578125 9.52441406 C41.52238396 9.52576121 40.11898712 9.52770216 38.71559143 9.5302124 C35.77592521 9.53316038 32.8363806 9.52887595 29.89672852 9.51953125 C26.1247387 9.50812628 22.35303316 9.51470467 18.58105373 9.52667618 C15.68404488 9.53389469 12.78710371 9.5316071 9.89009285 9.52642059 C8.49899322 9.52508461 7.10788747 9.52673003 5.71679497 9.5313797 C3.77530913 9.53644564 1.8338018 9.52735831 -0.10766602 9.51757812 C-1.21336441 9.51598694 -2.31906281 9.51439575 -3.45826721 9.51275635 C-6.0703125 9.25878906 -6.0703125 9.25878906 -8.0703125 7.25878906 C-8.3203125 4.75878906 -8.3203125 4.75878906 -8.0703125 2.25878906 C-5.33569491 -0.47582853 -3.82746577 0.00540641 0 0 Z " fill="#FFF6F1" transform="translate(283.0703125,111.7412109375)"/>
<path d="M0 0 C1.4616156 -0.00945648 1.4616156 -0.00945648 2.95275879 -0.019104 C4.53558655 -0.01303131 4.53558655 -0.01303131 6.15039062 -0.00683594 C7.23042358 -0.00874939 8.31045654 -0.01066284 9.42321777 -0.01263428 C11.70971916 -0.01399701 13.99622826 -0.01029445 16.28271484 -0.00195312 C19.79216817 0.00874495 23.30110956 -0.00184566 26.81054688 -0.01464844 C29.02799593 -0.01332686 31.24544466 -0.0107645 33.46289062 -0.00683594 C34.51810913 -0.0108844 35.57332764 -0.01493286 36.66052246 -0.019104 C37.63493286 -0.01279968 38.60934326 -0.00649536 39.61328125 0 C40.47328735 0.00159119 41.33329346 0.00318237 42.21936035 0.00482178 C44.30664062 0.25878906 44.30664062 0.25878906 46.30664062 2.25878906 C46.68164062 4.69628906 46.68164062 4.69628906 46.30664062 7.25878906 C43.47780882 9.92739499 41.52641596 10.63547877 37.67749023 10.64697266 C36.76652084 10.65642914 35.85555145 10.66588562 34.91697693 10.67562866 C33.94083939 10.66955597 32.96470184 10.66348328 31.95898438 10.65722656 C30.95074112 10.66009674 29.94249786 10.66296692 28.90370178 10.66592407 C26.77458127 10.66796377 24.64544199 10.66244055 22.51635742 10.64990234 C19.25266793 10.63383105 15.99021374 10.64976328 12.7265625 10.66894531 C10.65820039 10.66696319 8.58983904 10.66312017 6.52148438 10.65722656 C5.5433226 10.66329926 4.56516083 10.66937195 3.55735779 10.67562866 C2.64954056 10.66617218 1.74172333 10.6567157 0.80639648 10.64697266 C-0.39129112 10.64339249 -0.39129112 10.64339249 -1.61317444 10.63973999 C-4.2182478 10.16266456 -5.11033459 9.35009915 -6.69335938 7.25878906 C-7.00585938 4.69628906 -7.00585938 4.69628906 -6.69335938 2.25878906 C-4.2007462 -0.23382412 -3.43829147 0.00636154 0 0 Z " fill="#EDD5C4" transform="translate(236.693359375,305.7412109375)"/>
<path d="M0 0 C1.43158447 -0.00945648 1.43158447 -0.00945648 2.89208984 -0.019104 C3.92543457 -0.01505554 4.9587793 -0.01100708 6.0234375 -0.00683594 C7.08127441 -0.00874939 8.13911133 -0.01066284 9.22900391 -0.01263428 C11.46842689 -0.01399696 13.70785776 -0.01029476 15.94726562 -0.00195312 C19.38429427 0.00874504 22.8208002 -0.00184581 26.2578125 -0.01464844 C28.42968866 -0.01332686 30.60156449 -0.0107645 32.7734375 -0.00683594 C33.80678223 -0.0108844 34.84012695 -0.01493286 35.90478516 -0.019104 C36.8591748 -0.01279968 37.81356445 -0.00649536 38.796875 0 C39.63911621 0.00159119 40.48135742 0.00318237 41.34912109 0.00482178 C43.3984375 0.25878906 43.3984375 0.25878906 45.3984375 2.25878906 C45.757888 5.06250299 45.8973614 6.60006786 44.16014099 8.89369202 C41.92776309 10.62350211 40.70350885 10.64386218 37.89868164 10.6628418 C36.99086441 10.67552597 36.08304718 10.68821014 35.14772034 10.70127869 C34.16955856 10.69834305 33.19139679 10.69540741 32.18359375 10.69238281 C30.67266396 10.70024559 30.67266396 10.70024559 29.13121033 10.70826721 C27.00032473 10.71469241 24.86940368 10.71334401 22.73852539 10.70483398 C19.47673374 10.69633024 16.21669638 10.72506933 12.95507812 10.75683594 C10.88541719 10.75844816 8.81575315 10.75787002 6.74609375 10.75488281 C5.28188744 10.77173378 5.28188744 10.77173378 3.7881012 10.78892517 C-2.957331 10.71946228 -2.957331 10.71946228 -6.25610352 8.3605957 C-7.6015625 6.25878906 -7.6015625 6.25878906 -7.4765625 4.13378906 C-5.67461936 0.27248233 -3.99085263 0.00753963 0 0 Z " fill="#EDD5C4" transform="translate(147.6015625,305.7412109375)"/>
<path d="M0 0 C1.43158447 -0.00945648 1.43158447 -0.00945648 2.89208984 -0.019104 C3.92543457 -0.01505554 4.9587793 -0.01100708 6.0234375 -0.00683594 C7.08127441 -0.00874939 8.13911133 -0.01066284 9.22900391 -0.01263428 C11.46842689 -0.01399696 13.70785776 -0.01029476 15.94726562 -0.00195312 C19.38429427 0.00874504 22.8208002 -0.00184581 26.2578125 -0.01464844 C28.42968866 -0.01332686 30.60156449 -0.0107645 32.7734375 -0.00683594 C33.80678223 -0.0108844 34.84012695 -0.01493286 35.90478516 -0.019104 C36.8591748 -0.01279968 37.81356445 -0.00649536 38.796875 0 C39.63911621 0.00159119 40.48135742 0.00318237 41.34912109 0.00482178 C43.3984375 0.25878906 43.3984375 0.25878906 45.3984375 2.25878906 C45.7109375 5.25878906 45.7109375 5.25878906 45.3984375 8.25878906 C42.24677251 10.35989906 41.48238512 10.51275461 37.8828125 10.53344727 C36.51624512 10.54774529 36.51624512 10.54774529 35.12207031 10.56233215 C34.14077148 10.56142075 33.15947266 10.56050934 32.1484375 10.55957031 C31.1387793 10.56385544 30.12912109 10.56814056 29.08886719 10.57255554 C26.95378367 10.57829956 24.81868059 10.57879858 22.68359375 10.57446289 C19.4111203 10.57130132 16.13954924 10.59476721 12.8671875 10.62011719 C10.79427198 10.62238995 8.72135402 10.62309379 6.6484375 10.62207031 C5.66713867 10.63128006 4.68583984 10.64048981 3.67480469 10.64997864 C2.76375977 10.64374985 1.85271484 10.63752106 0.9140625 10.63110352 C-0.28814941 10.63204765 -0.28814941 10.63204765 -1.51464844 10.63301086 C-4.12812241 10.16436725 -5.01610115 9.35626793 -6.6015625 7.25878906 C-6.9140625 4.69628906 -6.9140625 4.69628906 -6.6015625 2.25878906 C-4.12591215 -0.21686129 -3.40850517 0.00643945 0 0 Z " fill="#EDD5C4" transform="translate(326.6015625,305.7412109375)"/>
<path d="M0 0 C1.28282616 0.00607269 1.28282616 0.00607269 2.59156799 0.01226807 C3.46946487 0.01035461 4.34736176 0.00844116 5.25186157 0.00646973 C7.11046128 0.00510741 8.96907049 0.00880708 10.82765198 0.01715088 C13.67430513 0.02783706 16.52032535 0.01726382 19.36695862 0.00445557 C21.17099647 0.0057774 22.97503393 0.0083403 24.77906799 0.01226807 C25.6322612 0.0082196 26.48545441 0.00417114 27.36450195 0 C33.40683497 0.04796688 33.40683497 0.04796688 36.75172424 2.27789307 C35.87672424 8.15289307 35.87672424 8.15289307 34.75172424 9.27789307 C31.74534174 9.39146031 28.76279983 9.44208218 25.75563049 9.44586182 C24.39981117 9.45085442 24.39981117 9.45085442 23.01660156 9.45594788 C21.10075898 9.46102103 19.18490752 9.46335608 17.26905823 9.4631958 C14.33019006 9.46538119 11.39169773 9.48352971 8.45289612 9.50250244 C6.59547553 9.50543644 4.73805316 9.50742119 2.88063049 9.50836182 C1.99726517 9.51554733 1.11389984 9.52273285 0.20376587 9.53013611 C-6.01945436 9.50671446 -6.01945436 9.50671446 -8.24827576 7.27789307 C-8.49827576 4.77789307 -8.49827576 4.77789307 -8.24827576 2.27789307 C-5.59241109 -0.3779716 -3.613055 0.02879643 0 0 Z " fill="#FFF6F1" transform="translate(283.24827575683594,91.72210693359375)"/>
<path d="M0 0 C4.55997379 2.12297519 7.24219745 5.90840042 10 10 C10.98437723 11.01538242 11.98173215 12.01860784 13 13 C9.16692831 13.11719175 5.33432392 13.18758077 1.5 13.25 C0.42234375 13.28351563 -0.6553125 13.31703125 -1.765625 13.3515625 C-8.38748843 13.43231693 -13.52601948 12.95247526 -19 9 C-23 4.8 -23 4.8 -23 2 C-23.66 1.67 -24.32 1.34 -25 1 C-18.37933206 -2.31033397 -7.10840136 -1.26141813 0 0 Z " fill="#676FE5" transform="translate(25,479)"/>
<path d="M0 0 C1.29292969 -0.00257812 2.58585937 -0.00515625 3.91796875 -0.0078125 C4.59263184 -0.00362305 5.26729492 0.00056641 5.96240234 0.00488281 C8.02341157 0.0155843 10.08354919 0.00498557 12.14453125 -0.0078125 C13.43746094 -0.00523438 14.73039062 -0.00265625 16.0625 0 C17.25423828 0.00225586 18.44597656 0.00451172 19.67382812 0.00683594 C22.53125 0.265625 22.53125 0.265625 24.53125 2.265625 C24.78125 4.765625 24.78125 4.765625 24.53125 7.265625 C21.73505868 10.06181632 19.97240287 9.52384889 16.0625 9.53125 C14.76957031 9.53382812 13.47664063 9.53640625 12.14453125 9.5390625 C11.46986816 9.53487305 10.79520508 9.53068359 10.10009766 9.52636719 C8.03908843 9.5156657 5.97895081 9.52626443 3.91796875 9.5390625 C2.62503906 9.53648438 1.33210938 9.53390625 0 9.53125 C-1.19173828 9.52899414 -2.38347656 9.52673828 -3.61132812 9.52441406 C-6.46875 9.265625 -6.46875 9.265625 -8.46875 7.265625 C-8.71875 4.765625 -8.71875 4.765625 -8.46875 2.265625 C-5.67255868 -0.53056632 -3.90990287 0.00740111 0 0 Z " fill="#FFF6F1" transform="translate(335.46875,91.734375)"/>
<path d="M0 0 C0.33 3.96 0.66 7.92 1 12 C-5.93 12 -12.86 12 -20 12 C-18.35 10.35 -16.7 8.7 -15 7 C-14.42636719 6.33355469 -13.85273438 5.66710937 -13.26171875 4.98046875 C-8.94850135 0.06789608 -6.49529233 -0.79766748 0 0 Z " fill="#676FE5" transform="translate(178,480)"/>
<path d="M0 0 C0.33 0 0.66 0 1 0 C1.66666667 4.66666667 2.33333333 9.33333333 3 14 C3.2165625 15.2684375 3.433125 16.536875 3.65625 17.84375 C4 21 4 21 2.5625 22.9375 C2.046875 23.288125 1.53125 23.63875 1 24 C-0.06309567 18.82682579 -0.11693938 13.87630664 -0.0625 8.625 C-0.05798828 7.79355469 -0.05347656 6.96210938 -0.04882812 6.10546875 C-0.03713164 4.07028103 -0.01919935 2.03513077 0 0 Z " fill="#BF6ACC" transform="translate(0,410)"/>
</svg>
